<?xml version="1.0" encoding="UTF-8" standalone="no"?><!-- Generator: Gravit.io --><svg xmlns="http://www.w3.org/2000/svg" xmlns:xlink="http://www.w3.org/1999/xlink" style="isolation:isolate" viewBox="57.821 109 372.143 288.975" width="372.143pt" height="288.975pt"><g><g><path d=" M 129.032 323.906 L 93.983 288.694 L 111.607 256.327 C 129.23 233.758 166.543 235.209 166.543 235.209 C 184.951 233.958 203.444 235.093 221.561 238.587 C 251.2 244.392 248.808 263.966 248.808 263.966 L 252.779 336.607 L 257.04 395.758 L 147.736 397.963 L 129.032 323.952" fill="rgb(144,202,249)"/><path d=" M 187.916 394.504 L 90.013 395.665 C 79.049 395.792 68.792 390.266 62.867 381.04 C 56.942 371.815 56.184 360.188 60.861 350.271 L 102.725 272.638 L 140.863 298.411 L 114.846 352.361 L 194.092 353.777 L 187.916 394.504 Z " fill="rgb(144,202,249)"/><path d=" M 245.349 252.124 L 323.911 373.421 L 278.076 376.416 C 278.076 376.416 250.701 333.287 251.316 334.169 C 252.407 335.794 245.349 252.124 245.349 252.124 Z " fill="rgb(144,202,249)"/><path d=" M 138.889 305.389 C 138.892 305.176 138.927 304.964 138.993 304.762 C 139.11 304.297 139.237 303.717 139.411 302.997 C 139.771 301.476 140.305 299.27 140.851 296.531 C 141.397 293.791 142.012 290.494 142.395 286.825 C 142.867 282.849 142.867 278.831 142.395 274.856 C 141.765 270.913 140.39 267.127 138.343 263.699 C 136.698 260.877 134.752 258.241 132.539 255.839 C 131.047 254.197 129.457 252.646 127.779 251.195 C 127.139 250.695 126.527 250.16 125.944 249.593 C 126.133 249.687 126.312 249.8 126.478 249.93 C 126.803 250.174 127.326 250.51 127.93 251.01 C 129.675 252.388 131.32 253.889 132.852 255.502 C 135.14 257.887 137.15 260.524 138.843 263.362 C 140.961 266.843 142.381 270.704 143.022 274.728 C 143.482 278.753 143.451 282.819 142.929 286.837 C 142.537 290.106 141.979 293.353 141.257 296.565 C 140.654 299.317 140.096 301.511 139.62 303.02 C 139.411 303.775 139.226 304.355 139.098 304.75 C 139.049 304.969 138.979 305.183 138.889 305.389 L 138.889 305.389 Z " fill="rgb(38,50,56)"/><path d=" M 135.731 309.568 C 135.564 310.173 135.338 310.76 135.058 311.321 C 134.593 312.482 133.897 314.038 133.003 315.965 C 131.227 319.901 128.707 325.311 125.805 331.232 C 122.903 337.152 120.163 342.458 118.131 346.324 C 117.109 348.228 116.274 349.807 115.681 350.817 C 115.399 351.379 115.073 351.919 114.706 352.431 C 114.915 351.838 115.171 351.264 115.473 350.712 C 116.065 349.552 116.831 347.996 117.794 346.127 L 125.306 331.034 C 128.15 325.148 130.739 319.831 132.666 315.849 C 133.572 313.98 134.315 312.424 134.895 311.205 C 135.128 310.637 135.407 310.089 135.731 309.568 L 135.731 309.568 Z " fill="rgb(38,50,56)"/><path d=" M 187.916 394.504 C 187.916 394.504 187.916 394.434 187.916 394.306 C 187.916 394.306 187.916 393.946 187.916 393.703 C 187.974 393.145 188.056 392.368 188.148 391.381 C 188.381 389.314 188.706 386.377 189.112 382.674 C 189.971 375.162 191.202 364.597 192.595 352.14 L 192.873 352.442 L 163.954 352.442 L 113.441 352.361 L 98.116 352.268 L 93.948 352.21 L 92.857 352.21 L 92.486 352.21 C 92.609 352.195 92.734 352.195 92.857 352.21 L 93.948 352.21 L 98.116 352.152 L 113.441 352.059 L 164.035 351.978 L 192.955 351.978 L 193.268 351.978 L 193.268 352.28 C 191.736 364.725 190.447 375.29 189.518 382.79 C 189.054 386.482 188.671 389.419 188.357 391.485 Q 188.172 392.948 188.044 393.807 L 187.951 394.399 C 187.939 394.434 187.928 394.504 187.916 394.504 Z " fill="rgb(38,50,56)"/><path d=" M 115.531 353.22 C 114.829 352.446 114.178 351.627 113.58 350.771 C 110.451 346.842 106.577 343.572 102.18 341.146 C 101.24 340.692 100.326 340.188 99.44 339.637 C 100.47 339.878 101.46 340.269 102.377 340.798 C 106.957 343.06 110.917 346.403 113.917 350.538 C 114.576 351.353 115.119 352.256 115.531 353.22 Z " fill="rgb(38,50,56)"/><path d=" M 254.404 360.906 C 254.319 360.575 254.265 360.237 254.242 359.896 C 254.16 359.187 254.056 358.224 253.917 357.005 C 253.65 354.497 253.29 350.863 252.907 346.37 C 252.105 337.373 251.188 324.928 250.376 311.182 C 249.563 297.436 248.994 284.967 248.669 275.947 C 248.507 271.431 248.39 267.82 248.344 265.254 C 248.344 264.035 248.344 263.072 248.286 262.352 C 248.268 262.016 248.268 261.678 248.286 261.342 C 248.35 261.675 248.385 262.013 248.39 262.352 C 248.39 263.06 248.483 264.035 248.553 265.254 C 248.681 267.832 248.855 271.466 249.075 275.924 C 249.505 284.944 250.143 297.39 250.956 311.147 C 251.769 324.904 252.628 337.327 253.278 346.336 C 253.626 350.782 253.905 354.462 254.102 356.993 C 254.195 358.154 254.265 359.176 254.323 359.884 C 254.381 360.221 254.408 360.563 254.404 360.906 Z " fill="rgb(38,50,56)"/><path d=" M 167.007 294.905 C 167.012 294.373 167.055 293.841 167.135 293.315 C 167.274 292.212 167.449 290.737 167.669 288.926 C 168.18 285.095 168.83 279.848 169.689 273.764 L 170.13 274.043 L 162.619 279.302 L 154.98 284.619 L 154.434 285.002 L 154.527 284.341 C 155.456 278.315 156.245 273.114 156.849 269.248 C 157.151 267.472 157.383 266.009 157.569 264.918 C 157.631 264.394 157.74 263.878 157.894 263.374 C 157.895 263.903 157.848 264.432 157.755 264.953 C 157.615 266.044 157.441 267.507 157.209 269.306 C 156.686 273.114 155.955 278.327 155.119 284.399 L 154.678 284.12 L 162.306 278.78 L 169.829 273.544 L 170.374 273.161 L 170.281 273.822 C 169.387 279.883 168.61 285.13 168.052 288.915 C 167.762 290.714 167.53 292.189 167.356 293.28 C 167.288 293.831 167.172 294.375 167.007 294.905 Z " fill="rgb(224,224,224)"/><path d=" M 210.706 299.607 C 210.287 299.274 209.899 298.905 209.545 298.504 C 208.79 297.692 207.769 296.612 206.515 295.288 L 196.147 284.05 L 196.647 283.876 C 196.403 286.721 196.147 289.809 195.88 293.013 C 195.613 296.217 195.335 299.398 195.091 302.301 L 195.033 302.974 L 194.592 302.475 L 184.503 291.097 L 181.624 287.777 C 181.257 287.397 180.931 286.981 180.649 286.535 C 181.066 286.89 181.454 287.278 181.81 287.696 L 184.805 290.9 L 195.044 302.126 L 194.545 302.301 C 194.789 299.41 195.044 296.275 195.323 293.013 C 195.602 289.751 195.857 286.721 196.101 283.876 L 196.159 283.214 L 196.6 283.702 L 206.817 295.091 L 209.731 298.423 C 210.086 298.792 210.412 299.188 210.706 299.607 L 210.706 299.607 Z " fill="rgb(224,224,224)"/><path d=" M 232.694 298.051 C 232.478 298.541 232.214 299.008 231.905 299.445 L 229.583 303.183 L 221.294 316.046 L 221.015 315.605 L 230.024 314.049 L 239.196 312.505 L 239.857 312.389 L 239.544 312.888 L 231.069 325.496 L 228.515 329.142 C 228.231 329.588 227.913 330.011 227.563 330.407 C 227.792 329.932 228.056 329.474 228.352 329.037 L 230.674 325.322 L 238.975 312.552 L 239.265 312.993 L 230.094 314.583 L 221.05 316.116 L 220.388 316.22 L 220.76 315.675 L 229.223 302.904 L 231.707 299.247 C 232.012 298.829 232.342 298.43 232.694 298.051 Z " fill="rgb(224,224,224)"/><path d=" M 203.45 320.551 C 203.232 321.036 202.967 321.498 202.66 321.932 L 200.338 325.682 L 192.061 338.534 L 191.771 338.093 L 200.803 336.537 L 209.986 334.981 L 210.648 334.877 L 210.265 335.423 L 201.79 348.042 L 199.294 351.664 C 199.016 352.111 198.698 352.531 198.342 352.918 C 198.574 352.445 198.838 351.987 199.131 351.548 C 199.735 350.62 200.524 349.377 201.453 347.845 L 209.754 335.074 L 210.044 335.516 L 200.872 337.106 L 191.829 338.627 L 191.167 338.743 L 191.538 338.186 L 200.002 325.415 C 201.023 323.906 201.859 322.675 202.498 321.758 C 202.786 321.333 203.104 320.93 203.45 320.551 L 203.45 320.551 Z " fill="rgb(224,224,224)"/><path d=" M 266.641 297.796 C 266.41 298.275 266.147 298.736 265.851 299.178 L 263.529 302.927 L 255.252 315.779 L 254.961 315.338 L 263.994 313.782 L 273.177 312.227 L 273.839 312.122 L 273.467 312.668 L 264.981 325.288 C 263.959 326.774 263.123 327.993 262.484 328.898 C 262.21 329.35 261.891 329.774 261.532 330.164 C 261.767 329.688 262.034 329.231 262.334 328.794 L 264.655 325.09 L 272.956 312.32 L 273.247 312.761 L 264.075 314.34 L 255.031 315.872 L 254.381 315.988 L 254.741 315.431 L 263.204 302.66 L 265.7 299.003 C 265.974 298.571 266.289 298.167 266.641 297.796 Z " fill="rgb(224,224,224)"/><path d=" M 303.095 356.239 C 302.68 355.923 302.291 355.573 301.934 355.194 L 298.753 352.129 L 287.828 341.425 L 288.316 341.227 C 288.223 344.083 288.13 347.172 288.025 350.387 C 287.921 353.603 287.793 356.796 287.689 359.675 L 287.689 360.348 L 287.213 359.872 L 276.578 349.017 L 273.537 345.848 C 273.159 345.489 272.81 345.101 272.492 344.687 C 272.905 345.005 273.294 345.354 273.653 345.732 L 276.811 348.785 L 287.608 359.489 L 287.108 359.687 C 287.201 356.784 287.306 353.65 287.41 350.399 C 287.515 347.148 287.642 344.095 287.747 341.239 L 287.747 340.577 L 288.211 341.042 L 298.973 351.908 L 302.05 355.089 C 302.43 355.443 302.779 355.827 303.095 356.239 L 303.095 356.239 Z " fill="rgb(224,224,224)"/><path d=" M 118.677 279.151 C 118.45 279.631 118.186 280.093 117.887 280.533 L 115.565 284.283 L 107.288 297.146 L 106.998 296.705 L 116.03 295.137 L 125.213 293.593 L 125.875 293.477 L 125.503 294.035 L 117.017 306.643 L 114.532 310.265 C 114.25 310.708 113.932 311.128 113.58 311.519 C 113.803 311.043 114.067 310.589 114.37 310.16 L 116.692 306.445 C 118.793 303.229 121.672 298.818 124.992 293.675 L 125.283 294.116 L 116.111 295.706 L 107.067 297.239 L 106.417 297.343 L 106.777 296.798 C 110.179 291.689 113.104 287.278 115.24 284.027 L 117.736 280.37 C 118.017 279.94 118.332 279.532 118.677 279.151 L 118.677 279.151 Z " fill="rgb(224,224,224)"/><path d=" M 72.773 365.967 C 73.164 366.321 73.521 366.709 73.841 367.128 L 76.673 370.53 L 86.298 382.407 L 85.787 382.546 C 86.205 379.725 86.646 376.66 87.122 373.467 C 87.598 370.275 88.062 367.128 88.492 364.261 L 88.585 363.599 L 89.003 364.133 L 98.36 376.114 L 101.019 379.597 C 101.356 380 101.659 380.431 101.924 380.886 C 101.543 380.526 101.19 380.138 100.868 379.725 L 98.081 376.335 L 88.62 364.481 L 89.13 364.354 C 88.712 367.221 88.26 370.333 87.784 373.56 C 87.308 376.788 86.855 379.806 86.425 382.627 L 86.333 383.289 L 85.915 382.766 L 76.441 370.762 L 73.736 367.279 C 73.386 366.864 73.064 366.426 72.773 365.967 Z " fill="rgb(224,224,224)"/><path d=" M 177.607 309.754 C 177.087 309.865 176.559 309.935 176.028 309.963 L 171.616 310.346 L 156.361 311.507 L 156.547 311.019 L 163.234 317.289 L 170.003 323.674 L 170.49 324.138 L 169.817 324.138 L 154.643 324.974 L 150.255 325.16 C 149.729 325.205 149.201 325.205 148.676 325.16 C 149.193 325.056 149.717 324.99 150.243 324.962 L 154.62 324.614 L 169.782 323.569 L 169.608 324.057 L 162.816 317.695 L 156.152 311.402 L 155.665 310.938 L 156.327 310.938 L 171.593 310.021 L 176.005 309.8 C 176.537 309.745 177.072 309.729 177.607 309.754 Z " fill="rgb(224,224,224)"/><path d=" M 151.88 368.266 C 152.267 368.63 152.632 369.018 152.971 369.427 L 155.862 372.771 L 165.742 384.45 L 165.231 384.589 C 165.591 381.756 165.986 378.692 166.392 375.499 C 166.798 372.306 167.216 369.137 167.553 366.269 L 167.646 365.596 L 168.064 366.118 L 177.677 377.902 L 180.405 381.385 C 180.743 381.789 181.053 382.216 181.334 382.662 C 180.942 382.306 180.581 381.917 180.254 381.501 L 177.398 378.169 L 167.646 366.56 L 168.145 366.409 C 167.785 369.288 167.39 372.399 166.984 375.638 C 166.578 378.877 166.171 381.907 165.823 384.74 L 165.73 385.402 L 165.312 384.891 L 155.595 373.072 L 152.832 369.59 C 152.472 369.181 152.153 368.738 151.88 368.266 L 151.88 368.266 Z " fill="rgb(224,224,224)"/><path d=" M 105.895 325.357 C 105.375 325.471 104.847 325.541 104.316 325.566 L 99.916 325.938 L 84.661 327.099 L 84.835 326.599 L 91.534 332.88 L 98.302 339.265 L 98.79 339.73 L 98.116 339.73 L 82.943 340.566 L 78.554 340.751 C 78.04 340.795 77.524 340.795 77.01 340.751 C 77.526 340.64 78.05 340.574 78.577 340.554 L 82.954 340.206 L 98.116 339.149 L 97.942 339.649 L 91.15 333.287 L 84.475 326.994 L 83.999 326.53 L 84.661 326.53 L 99.927 325.601 L 104.339 325.392 C 104.856 325.341 105.376 325.33 105.895 325.357 L 105.895 325.357 Z " fill="rgb(224,224,224)"/><path d=" M 145.402 366.954 C 144.882 367.065 144.354 367.131 143.823 367.152 L 139.411 367.535 L 124.156 368.696 L 124.342 368.196 L 131.029 374.477 L 137.798 380.863 L 138.285 381.327 L 137.624 381.327 L 122.438 382.151 L 118.05 382.349 C 117.525 382.394 116.996 382.394 116.471 382.349 C 116.987 382.237 117.511 382.171 118.038 382.151 L 122.415 381.803 L 137.577 380.746 L 137.403 381.246 L 130.611 374.884 L 123.948 368.614 L 123.46 368.162 L 124.122 368.162 L 139.388 367.233 L 143.811 367.024 C 144.338 366.953 144.871 366.929 145.402 366.954 L 145.402 366.954 Z " fill="rgb(224,224,224)"/><path d=" M 234.575 261.121 C 234.055 261.233 233.527 261.303 232.996 261.33 L 228.585 261.702 L 213.341 262.863 L 213.515 262.375 L 220.202 268.644 L 226.971 275.03 L 227.458 275.494 L 226.797 275.494 L 211.611 276.33 L 207.223 276.516 C 206.698 276.561 206.169 276.561 205.644 276.516 C 206.16 276.405 206.684 276.339 207.211 276.318 L 211.588 275.97 L 226.762 274.925 L 226.576 275.413 L 219.808 269.062 L 213.144 262.77 L 212.656 262.306 L 213.318 262.306 L 228.585 261.377 L 233.008 261.168 C 233.528 261.113 234.052 261.098 234.575 261.121 L 234.575 261.121 Z " fill="rgb(224,224,224)"/><path d=" M 191.202 366.954 C 191.202 366.954 210.729 361.324 217.196 359.675 C 219.715 359.037 230.5 364.725 237.953 369.462 C 237.953 369.462 248.216 375.545 247.392 377.414 C 246.475 379.481 242.748 379.063 236.653 376.254 C 236.653 376.254 238.766 382.372 234.621 382.232 C 234.621 382.232 236.676 388.85 232.799 389.535 C 228.921 390.22 228.016 381.78 224.602 381.327 C 221.189 380.874 214.154 380.41 214.154 380.41 C 214.154 380.41 208.268 390.162 203.705 390.858 C 199.143 391.555 188.613 390.313 188.613 390.313 L 191.202 366.954 Z " fill="rgb(255,190,157)"/><path d=" M 224.533 368.301 C 226.444 369.152 228.271 370.182 229.989 371.377 C 231.812 372.409 233.53 373.614 235.121 374.976 C 231.381 373.103 227.835 370.867 224.533 368.301 L 224.533 368.301 Z " fill="rgb(235,153,110)"/><path d=" M 223.383 372.097 C 225.614 372.799 227.781 373.689 229.862 374.756 C 232.012 375.63 234.086 376.682 236.061 377.902 C 233.83 377.208 231.662 376.322 229.583 375.255 C 227.428 374.386 225.354 373.329 223.383 372.097 L 223.383 372.097 Z " fill="rgb(235,153,110)"/><path d=" M 225.473 381.164 C 228.422 381.153 231.36 381.544 234.204 382.325 C 231.254 382.334 228.318 381.943 225.473 381.164 Z " fill="rgb(235,153,110)"/><path d=" M 165.788 165.447 C 166.258 166.985 165.763 168.655 164.53 169.688 C 163.297 170.721 161.566 170.916 160.135 170.184 C 157.488 168.849 157.151 165.192 157.673 162.278 C 158.196 159.364 159.183 156.241 157.964 153.536 C 157.023 151.469 154.991 150.157 153.413 148.532 C 150.588 145.668 149.269 141.646 149.848 137.665 C 150.531 133.674 153.391 130.401 157.255 129.19 C 161.145 128.111 165.939 129.306 168.865 126.485 C 170.966 124.442 171.094 121.11 172.719 118.672 C 175.239 114.887 180.567 114.284 185.072 114.899 C 189.576 115.514 194.151 116.965 198.562 115.863 C 202.242 114.945 205.261 112.38 208.721 110.801 C 216.451 107.267 225.572 109.037 231.42 115.205 C 237.268 121.373 238.55 130.575 234.61 138.106 C 233.329 140.795 231.148 142.951 228.445 144.202" fill="rgb(38,50,56)"/><path d=" M 188.195 261.354 L 188.195 261.354 C 194.175 261.342 199.901 258.936 204.096 254.674 C 208.29 250.412 210.604 244.648 210.52 238.669 L 210.23 217.33 C 210.23 217.33 228.155 215.531 229.339 197.768 C 229.339 197.768 229.676 139.012 229.676 139.012 L 229.676 139.012 C 209.592 129.049 185.691 130.723 167.193 143.389 L 164.453 145.281 L 165.788 239.249 C 165.935 251.514 175.929 261.374 188.195 261.354 L 188.195 261.354 Z " fill="rgb(255,190,157)"/><path d=" M 224.986 171.252 C 223.644 171.097 222.631 169.961 222.631 168.611 C 222.631 167.26 223.644 166.124 224.986 165.969 C 225.127 165.935 225.274 165.935 225.415 165.969 C 226.757 166.124 227.77 167.26 227.77 168.611 C 227.77 169.961 226.757 171.097 225.415 171.252 C 225.273 171.275 225.128 171.275 224.986 171.252 Z " fill="rgb(38,50,56)"/><path d=" M 228.468 165.517 C 228.178 165.819 226.506 164.356 224.057 164.228 C 221.607 164.1 219.761 165.25 219.517 164.925 C 219.274 164.6 219.692 164.24 220.504 163.694 C 222.734 162.263 225.636 162.457 227.656 164.17 C 228.387 164.82 228.619 165.447 228.468 165.517 Z " fill="rgb(38,50,56)"/><path d=" M 200.153 166.12 C 201.014 166.717 201.431 167.773 201.209 168.797 C 200.987 169.821 200.17 170.61 199.139 170.797 C 198.108 170.983 197.067 170.529 196.501 169.648 C 195.934 168.766 195.955 167.631 196.554 166.771 C 197.369 165.599 198.979 165.308 200.153 166.12 Z " fill="rgb(38,50,56)"/><path d=" M 201.766 166.225 C 201.465 166.527 199.793 165.064 197.355 164.936 C 194.917 164.808 193.059 165.958 192.804 165.633 C 192.676 165.482 192.99 164.948 193.791 164.402 C 196.02 162.972 198.922 163.165 200.942 164.878 C 201.674 165.528 201.906 166.097 201.766 166.225 Z " fill="rgb(38,50,56)"/><path d=" M 210.52 186.96 C 210.52 186.774 212.041 186.542 214.525 186.333 C 215.164 186.333 215.686 186.182 215.744 185.845 C 215.791 185.205 215.667 184.564 215.384 183.987 C 214.839 182.327 214.293 180.656 213.713 178.903 C 211.391 171.67 209.87 165.714 210.23 165.598 C 210.59 165.482 212.749 171.252 215.036 178.485 C 215.57 180.249 216.093 181.967 216.592 183.593 C 216.96 184.438 217.034 185.383 216.801 186.275 C 216.591 186.763 216.159 187.122 215.64 187.238 C 215.278 187.319 214.907 187.346 214.537 187.319 C 212.029 187.273 210.52 187.157 210.52 186.96 Z " fill="rgb(38,50,56)"/><path d=" M 202.393 189.235 C 206.125 191.151 210.101 192.545 214.212 193.38 C 212.356 195.929 208.988 196.862 206.085 195.632 C 200.849 193.391 202.393 189.235 202.393 189.235 Z " fill="rgb(255,255,255)"/><path d=" M 210.299 217.075 C 202.081 216.782 194.136 214.05 187.475 209.227 C 187.475 209.227 192.258 222.311 210.079 221.684 L 210.299 217.075 Z " fill="rgb(235,153,110)"/><path d=" M 229.827 143.505 C 229.827 143.505 219.088 148.961 204.866 142.205 C 195.579 137.77 184.7 135.715 182.355 137.63 C 180.01 139.546 179.697 149.066 170.595 152.026 C 170.595 152.026 171.582 170.207 164.314 169.696 C 157.046 169.185 161.04 140.939 161.04 140.939 L 178.605 131.93 L 197.889 127.902 L 216.174 130.119 L 230.361 133.706 L 229.827 143.505 Z " fill="rgb(38,50,56)"/><path d=" M 165.637 163.857 C 165.347 163.706 153.622 159.573 153.355 171.751 C 153.088 183.929 165.359 181.689 165.382 181.341 C 165.405 180.992 165.637 163.857 165.637 163.857 Z " fill="rgb(255,190,157)"/><path d=" M 161.76 176.639 C 161.76 176.639 161.539 176.79 161.179 176.94 C 160.669 177.148 160.099 177.148 159.589 176.94 C 158.312 176.441 157.267 174.375 157.267 172.181 C 157.265 171.135 157.491 170.101 157.929 169.15 C 158.182 168.385 158.793 167.792 159.566 167.56 C 160.07 167.468 160.575 167.718 160.808 168.175 C 160.959 168.512 160.878 168.756 160.936 168.779 C 160.994 168.802 161.203 168.582 161.121 168.082 C 161.058 167.779 160.894 167.505 160.657 167.305 C 160.328 167.046 159.912 166.925 159.496 166.968 C 158.474 167.144 157.617 167.839 157.232 168.802 C 156.696 169.847 156.417 171.006 156.419 172.181 C 156.419 174.63 157.65 176.964 159.392 177.509 C 160.051 177.711 160.765 177.608 161.342 177.231 C 161.76 176.94 161.76 176.662 161.76 176.639 Z " fill="rgb(235,153,110)"/><path d=" M 159.438 125.742 C 162.291 124.905 165.355 126.049 166.961 128.552 C 165.879 127.732 164.711 127.031 163.478 126.462 C 162.16 126.082 160.806 125.841 159.438 125.742 Z " fill="rgb(38,50,56)"/><path d=" M 166.764 118.451 C 166.984 118.451 166.647 121.017 167.065 124.059 C 167.427 125.888 167.999 127.668 168.772 129.364 C 168.772 129.364 168.261 128.935 167.75 128.029 C 167.095 126.824 166.662 125.511 166.473 124.152 C 166.135 122.254 166.234 120.305 166.764 118.451 Z " fill="rgb(38,50,56)"/><path d=" M 216.789 159.642 C 216.72 159.503 217.242 159.073 218.229 158.679 C 220.848 157.666 223.757 157.695 226.355 158.76 C 227.331 159.178 227.853 159.607 227.783 159.747 C 227.633 160.072 225.287 159.155 222.281 159.155 C 219.274 159.155 216.929 160.002 216.789 159.642 Z " fill="rgb(38,50,56)"/><path d=" M 189.623 157.111 C 189.553 156.972 190.076 156.554 191.062 156.148 C 192.361 155.646 193.745 155.397 195.137 155.416 C 196.536 155.416 197.921 155.692 199.212 156.229 C 200.188 156.647 200.698 157.077 200.64 157.227 C 200.582 157.378 198.144 156.635 195.126 156.624 C 192.107 156.612 189.785 157.436 189.623 157.111 Z " fill="rgb(38,50,56)"/><path d=" M 214.688 161.593 C 214.714 161.832 214.714 162.073 214.688 162.312 C 214.688 162.823 214.688 163.473 214.746 164.274 C 214.804 165.076 214.746 166.155 214.816 167.316 C 214.772 168.656 214.968 169.993 215.396 171.263 C 216.534 174.614 219.314 177.144 222.757 177.962 C 223.728 178.2 224.731 178.286 225.729 178.218 C 226.767 178.171 227.79 177.955 228.759 177.579 C 230.824 176.805 232.583 175.384 233.774 173.527 C 234.901 171.754 235.467 169.683 235.399 167.583 C 235.399 165.505 235.399 163.508 235.399 161.593 L 235.678 161.871 L 220.586 161.732 L 216.209 161.651 L 215.048 161.651 L 214.618 161.651 C 215.115 161.595 215.616 161.572 216.116 161.581 L 220.423 161.5 L 235.678 161.36 L 236.061 161.36 L 236.061 161.651 C 236.061 163.566 236.061 165.563 236.061 167.641 C 236.139 169.855 235.544 172.041 234.354 173.91 C 233.092 175.876 231.226 177.379 229.037 178.194 C 228.009 178.589 226.922 178.813 225.821 178.856 C 224.772 178.918 223.719 178.821 222.698 178.566 C 219.087 177.693 216.191 175 215.059 171.461 C 214.642 170.133 214.469 168.741 214.549 167.351 C 214.549 166.19 214.549 165.11 214.607 164.228 C 214.665 163.346 214.607 162.8 214.665 162.289 C 214.654 162.057 214.662 161.824 214.688 161.593 Z " fill="rgb(38,50,56)"/><path d=" M 186.233 160.989 C 186.233 160.989 186.233 161.256 186.233 161.709 L 186.233 163.671 C 186.233 164.53 186.233 165.552 186.291 166.724 C 186.26 168.063 186.457 169.398 186.871 170.671 C 187.406 172.2 188.284 173.586 189.437 174.723 C 190.769 176.017 192.425 176.928 194.232 177.358 C 196.229 177.84 198.325 177.706 200.246 176.975 C 202.305 176.202 204.06 174.785 205.249 172.935 C 206.38 171.164 206.951 169.092 206.886 166.991 C 206.886 164.913 206.886 162.905 206.886 160.989 L 207.165 161.268 L 192.072 161.128 L 187.707 161.059 L 186.546 161.059 L 186.117 161.059 C 186.61 161.004 187.106 160.98 187.603 160.989 L 191.91 160.919 L 207.165 160.78 L 207.443 160.78 L 207.443 161.059 C 207.443 162.974 207.443 164.983 207.443 167.061 C 207.514 169.276 206.915 171.46 205.725 173.33 C 204.463 175.289 202.602 176.787 200.42 177.602 C 199.391 177.996 198.305 178.22 197.204 178.264 C 196.15 178.326 195.093 178.228 194.069 177.974 C 192.172 177.507 190.438 176.531 189.054 175.153 C 187.856 173.949 186.958 172.482 186.43 170.869 C 186.013 169.541 185.84 168.148 185.919 166.759 C 185.919 165.598 185.919 164.518 185.989 163.636 C 186.059 162.754 185.989 162.208 185.989 161.697 C 186.031 161.449 186.114 161.21 186.233 160.989 L 186.233 160.989 Z " fill="rgb(38,50,56)"/><path d=" M 214.943 162.44 C 212.288 162.843 209.588 162.843 206.933 162.44 C 209.587 162.022 212.289 162.022 214.943 162.44 L 214.943 162.44 Z " fill="rgb(38,50,56)"/><path d=" M 164.082 162.591 C 167.773 162.283 171.478 162.171 175.181 162.254 C 178.886 162.149 182.595 162.238 186.291 162.521 C 182.601 162.844 178.895 162.956 175.192 162.858 C 171.487 162.977 167.777 162.887 164.082 162.591 L 164.082 162.591 Z " fill="rgb(38,50,56)"/><path d=" M 283.509 381.675 C 288.838 391.565 299.47 397.413 310.676 396.617 L 310.676 396.617 C 324.027 395.682 334.939 385.601 336.925 372.364 L 343.659 295.288 L 316.69 288.625 L 305.672 348.994 C 305.672 348.994 299.914 374.291 283.509 381.675 Z " fill="rgb(255,190,157)"/><path d=" M 316.446 294.209 L 317.34 280.684 C 317.34 280.684 321.159 250.336 321.159 247.364 C 321.159 243.951 322.796 243.115 324.062 243.208 C 326.024 243.336 327.417 245.762 327.544 248.699 C 327.544 249.709 327.452 265.754 327.452 265.754 C 328.379 264.238 329.415 262.79 330.551 261.423 C 332.873 258.416 338.492 256.698 344.216 256.884 C 349.939 257.07 351.507 257.627 351.541 259.844 C 351.5 260.703 351.074 261.496 350.38 262.004 C 349.324 262.884 347.982 263.347 346.607 263.304 C 337.447 263.142 334.998 268.029 334.998 268.029 L 334.882 269.805 C 334.882 269.805 340.443 265.823 344.878 267.483 C 345.533 267.726 346.133 268.097 346.642 268.575 C 349.183 268.585 351.528 269.94 352.806 272.137 C 354.083 274.333 354.101 277.042 352.853 279.256 C 352.364 280.399 351.216 281.116 349.974 281.055 C 349.36 280.871 348.804 280.531 348.36 280.068 C 348.1 279.848 347.825 279.646 347.536 279.465 L 346.514 284.375 C 346.514 284.375 343.624 295.288 342.904 300.188" fill="rgb(255,190,157)"/><path d=" M 319.081 293.152 C 320.753 293.617 322.483 292.386 323.388 290.9 C 324.294 289.414 324.677 287.661 325.466 286.105 C 327.858 281.461 333.593 279.256 335.787 274.496 C 336.089 273.834 336.252 272.928 335.671 272.487 C 335.091 272.046 334.371 272.406 333.779 272.731 L 318.686 281.09" fill="rgb(255,190,157)"/><path d=" M 318.675 281.067 C 319.145 280.65 319.663 280.291 320.219 279.999 C 321.24 279.36 322.738 278.478 324.596 277.398 L 331.155 273.648 L 333.047 272.58 C 333.753 272.022 334.65 271.768 335.543 271.872 C 336.108 272.055 336.501 272.568 336.53 273.161 C 336.56 273.638 336.477 274.115 336.286 274.554 C 335.937 275.328 335.501 276.061 334.986 276.736 C 332.896 279.453 330.191 281.16 328.241 283.145 C 327.293 284.043 326.486 285.081 325.849 286.221 C 325.281 287.289 324.921 288.404 324.48 289.414 C 323.931 291.12 322.656 292.497 320.997 293.175 C 319.754 293.547 319.058 293.175 319.104 293.106 C 319.706 293.124 320.305 293.026 320.869 292.816 C 322.337 292.066 323.424 290.735 323.864 289.147 C 324.236 288.022 324.666 286.918 325.153 285.838 C 325.793 284.602 326.628 283.477 327.626 282.506 C 329.623 280.417 332.27 278.663 334.22 276.144 C 334.679 275.536 335.069 274.878 335.381 274.182 C 335.671 273.52 335.625 272.859 335.253 272.789 C 334.882 272.719 334.15 273.033 333.512 273.393 L 331.585 274.438 L 324.932 278.06 C 323.028 279.07 321.449 279.859 320.405 280.382 C 319.863 280.69 319.281 280.921 318.675 281.067 L 318.675 281.067 Z " fill="rgb(235,153,110)"/><path d=" M 334.673 269.933 C 334.775 268.835 335.137 267.776 335.729 266.845 C 336.417 265.89 337.394 265.182 338.515 264.825 C 339.921 264.363 341.39 264.128 342.869 264.128 C 344.388 264.143 345.904 264.011 347.397 263.734 C 348.648 263.478 349.809 262.898 350.764 262.05 C 351.406 261.457 351.74 260.6 351.669 259.728 C 351.652 259.412 351.548 259.106 351.367 258.846 C 351.309 258.846 351.367 259.183 351.425 259.74 C 351.414 260.527 351.058 261.27 350.45 261.772 C 349.522 262.502 348.43 262.996 347.269 263.211 C 345.807 263.451 344.327 263.56 342.846 263.536 C 341.312 263.519 339.785 263.759 338.33 264.244 C 337.113 264.668 336.071 265.485 335.369 266.566 C 334.915 267.294 334.651 268.125 334.603 268.981 C 334.537 269.299 334.561 269.628 334.673 269.933 Z " fill="rgb(235,153,110)"/><path d=" M 327.463 247.561 C 327.365 248.623 327.365 249.692 327.463 250.754 C 327.463 252.937 327.463 255.549 327.544 258.428 C 327.626 261.307 327.544 263.919 327.544 266.102 C 327.475 267.166 327.498 268.234 327.614 269.295 C 327.868 268.253 327.997 267.185 327.997 266.114 C 328.137 264.152 328.229 261.47 328.218 258.428 C 328.206 255.386 328.09 252.693 327.951 250.731 C 327.902 249.66 327.739 248.597 327.463 247.561 Z " fill="rgb(235,153,110)"/><path d=" M 338.295 273.497 C 338.619 273.419 338.932 273.298 339.224 273.137 C 339.989 272.746 340.886 272.704 341.685 273.021 C 342.178 273.289 342.495 273.796 342.521 274.356 C 342.558 275.049 342.507 275.743 342.37 276.423 C 342.178 277.277 342.315 278.173 342.753 278.931 C 343.316 279.721 344.221 280.195 345.191 280.208 C 346.141 280.201 347.047 279.807 347.699 279.116 C 348.304 278.509 348.709 277.731 348.86 276.887 C 349.042 275.522 349.022 274.137 348.802 272.777 C 348.681 271.858 348.403 270.966 347.977 270.142 C 347.652 269.562 347.35 269.341 347.327 269.364 C 347.304 269.387 347.513 269.678 347.757 270.247 C 348.075 271.081 348.275 271.957 348.349 272.847 C 348.501 274.156 348.482 275.479 348.291 276.783 C 347.987 278.299 346.72 279.434 345.179 279.569 C 344.414 279.564 343.695 279.199 343.241 278.582 C 342.89 277.945 342.779 277.204 342.927 276.493 C 343.057 275.761 343.088 275.015 343.02 274.275 C 342.952 273.556 342.511 272.926 341.859 272.615 C 340.943 272.266 339.915 272.378 339.096 272.917 C 338.55 273.242 338.225 273.416 338.295 273.497 Z " fill="rgb(235,153,110)"/><path d=" M 347.432 278.629 C 347.35 278.932 347.383 279.254 347.525 279.534 C 347.855 280.341 348.541 280.95 349.382 281.183 C 350.654 281.456 351.976 281.042 352.865 280.091 C 353.912 278.942 354.473 277.432 354.432 275.877 C 354.432 274.342 353.953 272.844 353.062 271.593 C 352.335 270.573 351.344 269.771 350.195 269.271 C 349.441 268.931 348.629 268.738 347.803 268.702 C 347.223 268.702 346.909 268.702 346.909 268.795 C 347.981 268.934 349.025 269.231 350.009 269.678 C 351.04 270.19 351.926 270.952 352.586 271.895 C 353.358 273.066 353.762 274.44 353.747 275.842 C 353.786 277.235 353.306 278.592 352.401 279.65 C 351.653 280.498 350.519 280.897 349.405 280.707 C 348.666 280.541 348.034 280.062 347.675 279.395 C 347.513 278.954 347.513 278.629 347.432 278.629 Z " fill="rgb(235,153,110)"/><path d=" M 336.403 289.356 C 335.904 289.198 335.369 289.198 334.87 289.356 C 333.563 289.642 332.388 290.352 331.527 291.376 L 332.061 291.539 C 331.99 290.82 331.874 290.106 331.712 289.402 C 331.25 286.906 330.105 284.588 328.404 282.704 C 329.541 284.881 330.443 287.174 331.097 289.542 C 331.26 290.261 331.376 290.958 331.457 291.608 L 331.55 292.328 L 332.003 291.759 C 332.772 290.81 333.801 290.105 334.963 289.727 C 335.834 289.46 336.403 289.437 336.403 289.356 Z " fill="rgb(235,153,110)"/><path d=" M 336.693 262.062 C 336.542 262.131 337.157 263.223 338.574 263.885 C 339.99 264.546 341.244 264.163 341.186 264.001 C 341.128 263.838 340.025 263.85 338.864 263.304 C 337.703 262.758 336.844 261.946 336.693 262.062 Z " fill="rgb(235,153,110)"/><path d=" M 311.802 302.962 L 345.69 305.389 C 345.69 305.389 340.478 365.352 339.467 374.651 C 339.467 374.651 332.502 397.975 311.802 397.975 C 311.802 397.975 287.248 390.928 278.041 376.416 C 288.896 368.893 306.136 346.429 306.136 346.429 L 311.802 302.962 Z " fill="rgb(144,202,249)"/><path d=" M 327.777 311.031 C 327.602 311.536 327.393 312.029 327.15 312.505 L 325.257 316.499 L 318.57 330.303 L 318.234 329.897 L 327.022 327.284 L 335.95 324.661 L 336.6 324.475 L 336.286 325.067 L 329.321 338.592 L 327.266 342.481 C 327.038 342.956 326.77 343.411 326.465 343.84 C 326.642 343.343 326.852 342.858 327.092 342.388 C 327.579 341.39 328.253 340.066 328.996 338.43 L 335.741 324.812 L 336.077 325.218 L 327.161 327.865 L 318.361 330.442 L 317.723 330.628 L 318.025 330.036 L 324.956 316.371 C 325.803 314.758 326.488 313.434 326.999 312.447 C 327.218 311.954 327.478 311.48 327.777 311.031 Z " fill="rgb(224,224,224)"/><path d=" M 324.572 368.707 C 324.052 368.819 323.525 368.889 322.994 368.916 L 318.582 369.299 L 303.327 370.46 L 303.513 369.961 L 310.2 376.23 L 316.968 382.616 L 317.456 383.08 L 316.782 383.08 L 301.609 383.916 L 297.22 384.102 C 296.695 384.147 296.167 384.147 295.641 384.102 C 296.158 383.999 296.682 383.937 297.209 383.916 L 301.585 383.556 L 316.748 382.511 L 316.573 383.01 L 309.782 376.637 L 303.118 370.344 L 302.63 369.891 L 303.292 369.891 L 318.559 368.974 L 322.982 368.754 C 323.51 368.698 324.042 368.682 324.572 368.707 L 324.572 368.707 Z " fill="rgb(224,224,224)"/></g><g><path d=" M 384.907 154.499 L 350.346 142.089 L 316.167 154.337 C 311.802 156.392 307.971 157.634 307.971 161.697 L 307.971 181.967 C 307.89 196.205 311.777 210.183 319.197 222.334 C 326.611 234.596 337.597 244.299 350.682 250.139 C 364.614 245.599 375.062 233.479 381.506 223.123 C 388.946 210.978 392.854 197 392.79 182.757 L 392.79 164.53 C 392.79 158.725 389.702 155.892 384.907 154.499 Z " fill="rgb(144,202,249)"/><g style="opacity:0.30000000000000004;"><g opacity="0.30000000000000004"><path d=" M 350.682 238.343 C 340.313 233.667 331.623 225.929 325.78 216.169 C 319.898 206.567 316.806 195.515 316.852 184.255 L 316.852 170.091 C 316.852 166.863 318.802 163.845 322.657 162.045 L 350.357 151.69 L 350.357 142.135 L 316.167 154.337 C 312.58 155.904 307.971 157.634 307.971 161.697 L 307.971 181.967 C 307.89 196.205 311.777 210.183 319.197 222.334 C 326.611 234.596 337.597 244.299 350.682 250.139 L 350.682 238.343 Z " fill="rgb(0,0,0)"/></g></g><g style="opacity:0.4;"><g opacity="0.4"><path d=" M 350.682 250.104 C 353.027 249.338 355.3 248.367 357.474 247.202 C 362.82 244.177 367.681 240.365 371.893 235.894 C 375.701 231.792 379.053 227.288 381.889 222.462 C 389.416 210.227 393.205 196.059 392.79 181.7 L 392.79 164.971 C 392.79 156.635 388.495 156.02 384.896 154.453 L 350.334 142.042 L 350.334 151.597 L 378.36 162.127 C 382.214 163.926 384.164 166.945 384.164 170.16 L 384.164 184.382 C 384.21 195.64 381.119 206.687 375.237 216.285 C 369.519 226 360.933 233.706 350.659 238.343 L 350.682 250.104 Z " fill="rgb(0,0,0)"/></g></g><g opacity="0.5"><path d=" M 359.517 183.349 L 359.517 180.609 C 359.517 175.653 355.499 171.635 350.543 171.635 C 345.587 171.635 341.569 175.653 341.569 180.609 L 341.569 183.395 C 339.114 183.763 337.298 185.871 337.296 188.353 L 337.296 204.49 C 337.296 207.26 339.542 209.505 342.312 209.505 L 359.122 209.505 C 361.892 209.505 364.138 207.26 364.138 204.49 L 364.138 188.353 C 364.14 185.734 362.127 183.555 359.517 183.349 L 359.517 183.349 Z  M 352.981 200.461 L 348.593 200.461 L 349.278 197.292 C 348.292 196.65 347.845 195.436 348.18 194.308 C 348.515 193.179 349.552 192.406 350.729 192.406 C 351.906 192.406 352.942 193.179 353.277 194.308 C 353.612 195.436 353.166 196.65 352.18 197.292 C 352.482 198.476 352.981 200.461 352.981 200.461 Z  M 357.625 183.326 L 343.508 183.326 L 343.508 180.609 C 343.661 176.832 346.768 173.848 350.549 173.848 C 354.33 173.848 357.437 176.832 357.59 180.609 L 357.625 183.326 Z " fill="rgb(255,255,255)"/></g><path d=" M 322.459 183.152 C 322.157 182.243 321.982 181.298 321.937 180.342 C 321.679 178.057 321.586 175.756 321.658 173.458 C 321.658 172.111 321.786 170.834 321.902 169.673 C 321.96 168.614 322.224 167.577 322.68 166.62 C 323.007 165.964 323.536 165.431 324.189 165.099 C 324.665 164.878 324.956 164.89 324.956 164.925 C 324.122 165.307 323.451 165.974 323.063 166.805 C 322.692 167.734 322.488 168.72 322.459 169.719 C 322.367 170.88 322.297 172.146 322.262 173.481 C 322.181 176.139 322.262 178.554 322.367 180.307 C 322.472 181.251 322.503 182.203 322.459 183.152 L 322.459 183.152 Z " fill="rgb(255,255,255)"/><path d=" M 322.959 191.963 C 322.796 191.963 322.645 191.139 322.622 190.106 C 322.599 189.072 322.726 188.237 322.889 188.237 C 323.052 188.237 323.202 189.061 323.226 190.094 C 323.249 191.127 323.133 191.963 322.959 191.963 Z " fill="rgb(255,255,255)"/></g><g><path d=" M 288.676 298.063 L 250.143 393.354 L 180.66 393.354 L 180.66 397.662 L 387.624 397.662 L 429.964 298.063 L 288.676 298.063 L 288.676 298.063 Z " fill="rgb(38,50,56)"/><path d=" M 347.583 354.323 C 346.189 359.118 342.126 362.148 338.504 361.103 C 334.882 360.058 333.082 355.298 334.475 350.503 C 335.869 345.709 339.943 342.679 343.566 343.724 C 347.188 344.768 348.987 349.528 347.583 354.323 Z " fill="rgb(250,250,250)"/></g></g></svg>