<?xml version="1.0" encoding="UTF-8" standalone="no"?><!-- Generator: Gravit.io --><svg xmlns="http://www.w3.org/2000/svg" xmlns:xlink="http://www.w3.org/1999/xlink" style="isolation:isolate" viewBox="103.7 66.772 292.601 366.457" width="292.601pt" height="366.457pt"><g><g><path d=" M 116.22 144.323 C 110.3 145.633 103.42 153.933 110.22 162.403 C 117.02 170.873 105.63 167.173 103.86 181.993 C 102.09 196.813 115.6 194.323 111.36 204.043 C 107.12 213.763 136.55 229.163 154.91 217.493 C 173.27 205.823 174.99 180.693 169.25 171.813 C 163.51 162.933 155.13 162.373 158.93 152.863 C 162.73 143.353 158.25 133.463 146.4 133.373 C 137.46 133.303 142.82 127.053 130.52 127.103 C 120.26 127.153 111.19 134.353 116.22 144.323 Z " fill="rgb(38,50,56)"/><path d=" M 149.13 156.713 C 147.949 156.713 146.885 157.424 146.433 158.515 C 145.981 159.606 146.231 160.862 147.066 161.697 C 147.901 162.532 149.157 162.782 150.248 162.33 C 151.339 161.878 152.05 160.814 152.05 159.633 C 152.053 158.857 151.746 158.113 151.198 157.565 C 150.65 157.017 149.906 156.71 149.13 156.713 L 149.13 156.713 Z  M 149.13 161.863 C 148.224 161.863 147.406 161.316 147.06 160.478 C 146.714 159.639 146.907 158.675 147.55 158.035 C 148.193 157.395 149.158 157.206 149.995 157.556 C 150.831 157.906 151.374 158.726 151.37 159.633 C 151.37 160.226 151.134 160.795 150.714 161.213 C 150.293 161.632 149.724 161.865 149.13 161.863 L 149.13 161.863 Z " fill="rgb(255,255,255)"/><path d=" M 173.75 185.163 L 173.75 185.163 C 173.684 185.153 173.625 185.116 173.587 185.061 C 173.549 185.006 173.536 184.938 173.55 184.873 C 174.45 180.213 170.82 175.703 166.98 170.873 C 162.49 165.303 157.41 158.983 159.2 151.453 C 160.73 145.033 160.05 139.673 157.28 136.353 C 155.02 133.643 151.49 132.353 146.8 132.633 C 142.5 132.853 141.23 131.633 139.88 130.453 C 138.53 129.273 136.74 127.603 130.57 127.643 L 130.57 127.643 C 130.436 127.643 130.326 127.537 130.32 127.403 C 130.32 127.263 130.431 127.148 130.57 127.143 L 130.78 127.143 C 137 127.143 138.71 128.703 140.22 130.083 C 141.54 131.293 142.69 132.343 146.78 132.133 C 151.63 131.883 155.3 133.193 157.67 136.033 C 160.54 139.483 161.25 145.033 159.67 151.573 C 157.94 158.863 162.72 164.813 167.35 170.573 C 171.26 175.443 174.96 180.043 174.02 184.923 C 174.018 184.991 173.988 185.055 173.937 185.1 C 173.886 185.146 173.818 185.168 173.75 185.163 Z " fill="rgb(38,50,56)"/><path d=" M 197.26 166.053 L 195.92 168.673 C 195.41 169.657 195.41 170.828 195.92 171.813 L 198.29 176.413 C 199.239 178.254 201.02 179.521 203.07 179.813 L 204.33 179.993 C 206.87 175.803 206.52 169.403 206.52 169.403 L 206.62 167.573 C 206.687 166.813 206.446 166.058 205.952 165.478 C 205.457 164.897 204.751 164.539 203.99 164.483 L 200.36 164.233 C 199.059 164.176 197.846 164.889 197.26 166.053 L 197.26 166.053 Z " fill="rgb(255,195,189)"/><path d=" M 167.49 183.563 C 167.49 183.563 167.55 183.673 167.6 183.743 L 167.81 184.053 L 168.29 184.693 C 168.63 185.133 169 185.563 169.38 185.993 C 170.14 186.853 170.95 187.693 171.79 188.503 C 173.492 190.109 175.337 191.559 177.3 192.833 C 181.148 195.391 185.499 197.096 190.06 197.833 L 190.91 197.953 L 191.34 198.013 C 191.304 198.009 191.267 198.009 191.23 198.013 C 191.014 198.03 190.807 198.106 190.63 198.233 C 190.44 198.413 190.9 198.153 191.34 197.493 C 192.464 195.669 193.297 193.682 193.81 191.603 C 194.461 189.181 194.949 186.719 195.27 184.233 C 195.46 182.973 195.57 181.683 195.68 180.403 C 195.79 179.123 195.87 177.783 195.87 176.633 L 207.39 177.183 C 207.24 178.753 207.09 180.103 206.93 181.553 C 206.77 183.003 206.54 184.403 206.34 185.823 C 205.9 188.683 205.39 191.543 204.64 194.483 C 204.274 195.997 203.823 197.489 203.29 198.953 C 202.706 200.604 201.962 202.195 201.07 203.703 C 199.871 205.779 198.147 207.503 196.07 208.703 C 194.677 209.453 193.132 209.88 191.55 209.953 C 191.18 209.953 190.72 209.953 190.42 209.953 L 189.83 209.953 L 188.65 209.873 C 185.503 209.578 182.392 208.978 179.36 208.083 C 176.359 207.167 173.442 205.996 170.64 204.583 C 167.867 203.165 165.209 201.534 162.69 199.703 C 161.42 198.793 160.19 197.823 158.98 196.803 C 158.38 196.293 157.79 195.753 157.19 195.203 L 156.29 194.353 L 155.82 193.883 C 155.65 193.703 155.54 193.593 155.27 193.293 L 167.49 183.563 Z " fill="rgb(64,123,255)"/><g opacity="0.5"><path d=" M 167.49 183.563 C 167.49 183.563 167.55 183.673 167.6 183.743 L 167.81 184.053 L 168.29 184.693 C 168.63 185.133 169 185.563 169.38 185.993 C 170.14 186.853 170.95 187.693 171.79 188.503 C 173.492 190.109 175.337 191.559 177.3 192.833 C 181.148 195.391 185.499 197.096 190.06 197.833 L 190.91 197.953 L 191.34 198.013 C 191.304 198.009 191.267 198.009 191.23 198.013 C 191.014 198.03 190.807 198.106 190.63 198.233 C 190.44 198.413 190.9 198.153 191.34 197.493 C 192.464 195.669 193.297 193.682 193.81 191.603 C 194.461 189.181 194.949 186.719 195.27 184.233 C 195.46 182.973 195.57 181.683 195.68 180.403 C 195.79 179.123 195.87 177.783 195.87 176.633 L 207.39 177.183 C 207.24 178.753 207.09 180.103 206.93 181.553 C 206.77 183.003 206.54 184.403 206.34 185.823 C 205.9 188.683 205.39 191.543 204.64 194.483 C 204.274 195.997 203.823 197.489 203.29 198.953 C 202.706 200.604 201.962 202.195 201.07 203.703 C 199.871 205.779 198.147 207.503 196.07 208.703 C 194.677 209.453 193.132 209.88 191.55 209.953 C 191.18 209.953 190.72 209.953 190.42 209.953 L 189.83 209.953 L 188.65 209.873 C 185.503 209.578 182.392 208.978 179.36 208.083 C 176.359 207.167 173.442 205.996 170.64 204.583 C 167.867 203.165 165.209 201.534 162.69 199.703 C 161.42 198.793 160.19 197.823 158.98 196.803 C 158.38 196.293 157.79 195.753 157.19 195.203 L 156.29 194.353 L 155.82 193.883 C 155.65 193.703 155.54 193.593 155.27 193.293 L 167.49 183.563 Z " fill="rgb(255,255,255)"/></g><path d=" M 143.49 425.253 C 142.03 421.993 143.04 408.253 143.24 406.023 C 140.71 404.693 132.01 406.323 132.01 406.323 C 132.01 406.323 134.44 420.753 133.01 425.253 C 136.34 427.113 143.49 425.253 143.49 425.253 Z " fill="rgb(255,195,189)"/><path d=" M 250.84 412.093 C 248.1 409.803 242.34 397.273 241.53 395.163 C 238.67 395.093 232.22 400.163 232.22 400.163 C 232.22 400.163 240.74 412.053 241.41 416.743 C 245.24 416.903 250.84 412.093 250.84 412.093 Z " fill="rgb(255,195,189)"/><path d=" M 152.39 433.223 C 145.08 433.223 143.83 433.113 139.72 432.973 C 136.2 432.843 135.36 433.283 132.53 433.223 C 130.17 433.173 130.26 430.913 130.98 428.303 C 131.24 427.383 131.6 426.303 131.98 425.003 C 132.271 423.99 133.197 423.292 134.25 423.293 L 142.25 423.293 C 142.985 423.304 143.676 423.645 144.13 424.223 C 146.07 426.633 150.26 428.393 153.92 428.883 C 157.88 429.413 155.31 433.223 152.39 433.223 Z " fill="rgb(64,123,255)"/><path d=" M 265.28 417.683 C 257.41 421.243 253.28 419.433 249.33 420.333 C 245.94 421.093 246.05 421.733 242.68 422.703 C 240.44 423.333 239.29 420.943 239.49 418.843 C 239.655 417.315 239.731 415.779 239.72 414.243 C 239.703 413.638 240.05 413.082 240.6 412.833 L 248.42 409.283 C 248.935 409.051 249.536 409.125 249.98 409.473 C 253.1 411.973 259.98 415.103 264.75 413.473 C 268.47 412.243 267.9 416.493 265.28 417.683 Z " fill="rgb(64,123,255)"/><path d=" M 178.48 239.333 C 178.48 239.333 196.95 281.743 207.08 312.993 C 219.49 341.273 244.35 400.603 244.35 400.603 C 244.84 402.113 236.98 404.883 235.28 404.603 C 235.28 404.603 202.46 365.243 189.1 320.533 C 154.35 276.933 144.1 241.933 144.1 241.933 L 178.48 239.333 Z " fill="rgb(38,50,56)"/><g opacity="0.2"><path d=" M 163.66 262.553 C 168.76 268.143 172.35 287.553 174.18 300.223 C 167.914 291.023 162.181 281.47 157.01 271.613 C 157.52 266.873 159.6 263.383 163.66 262.553 Z " fill="rgb(0,0,0)"/></g><path d=" M 168.19 240.123 C 168.19 240.123 169.5 299.033 164.38 328.053 C 159 358.523 142.38 395.283 143.53 415.283 C 141.81 416.283 135.79 416.343 132.42 415.283 C 132.42 415.283 126.66 355.893 143.97 326.903 C 140.22 297.903 130.24 260.293 139.1 242.333 L 168.19 240.123 Z " fill="rgb(38,50,56)"/><path d=" M 144.37 411.123 C 144.398 412.497 144.525 413.867 144.75 415.223 C 144.797 415.45 144.747 415.687 144.612 415.877 C 144.478 416.066 144.271 416.191 144.04 416.223 C 139.97 416.873 134.04 415.933 132.22 415.603 C 131.864 415.535 131.587 415.251 131.53 414.893 L 130.92 411.053 C 130.879 410.801 130.951 410.545 131.117 410.352 C 131.283 410.159 131.526 410.049 131.78 410.053 L 143.53 410.273 C 143.994 410.283 144.365 410.659 144.37 411.123 L 144.37 411.123 Z " fill="rgb(38,50,56)"/><g opacity="0.1"><path d=" M 144.37 411.123 C 144.398 412.497 144.525 413.867 144.75 415.223 C 144.797 415.45 144.747 415.687 144.612 415.877 C 144.478 416.066 144.271 416.191 144.04 416.223 C 139.97 416.873 134.04 415.933 132.22 415.603 C 131.864 415.535 131.587 415.251 131.53 414.893 L 130.92 411.053 C 130.879 410.801 130.951 410.545 131.117 410.352 C 131.283 410.159 131.526 410.049 131.78 410.053 L 143.53 410.273 C 143.994 410.283 144.365 410.659 144.37 411.123 L 144.37 411.123 Z " fill="rgb(255,255,255)"/></g><path d=" M 243.5 396.273 C 244 397.273 244.91 398.903 245.63 400.133 C 245.861 400.537 245.728 401.051 245.33 401.293 C 242.113 403.029 238.742 404.465 235.26 405.583 C 234.9 405.725 234.489 405.606 234.26 405.293 L 231.88 402.143 C 231.725 401.939 231.669 401.677 231.727 401.427 C 231.785 401.178 231.951 400.967 232.18 400.853 L 242.32 395.913 C 242.523 395.794 242.765 395.766 242.989 395.835 C 243.213 395.903 243.399 396.062 243.5 396.273 L 243.5 396.273 Z " fill="rgb(38,50,56)"/><g opacity="0.1"><path d=" M 243.5 396.273 C 244 397.273 244.91 398.903 245.63 400.133 C 245.861 400.537 245.728 401.051 245.33 401.293 C 242.113 403.029 238.742 404.465 235.26 405.583 C 234.9 405.725 234.489 405.606 234.26 405.293 L 231.88 402.143 C 231.725 401.939 231.669 401.677 231.727 401.427 C 231.785 401.178 231.951 400.967 232.18 400.853 L 242.32 395.913 C 242.523 395.794 242.765 395.766 242.989 395.835 C 243.213 395.903 243.399 396.062 243.5 396.273 L 243.5 396.273 Z " fill="rgb(255,255,255)"/></g><path d=" M 170.62 189.413 C 171.62 193.173 173.18 197.303 175.08 206.413 C 176.83 214.063 178.08 227.513 178.48 239.353 C 173.34 243.933 156.25 243.153 139.1 242.353 C 139.05 231.203 134.47 220.913 122.02 198.083 C 120.605 195.689 120.347 192.785 121.318 190.179 C 122.288 187.574 124.384 185.546 127.02 184.663 C 128.51 184.163 130.1 183.663 131.75 183.203 C 137.476 181.462 143.317 180.125 149.23 179.203 C 151.17 178.943 153.23 178.743 155.13 178.573 C 162.222 178.016 168.714 182.559 170.62 189.413 L 170.62 189.413 Z " fill="rgb(64,123,255)"/><g opacity="0.5"><path d=" M 170.62 189.413 C 171.62 193.173 173.18 197.303 175.08 206.413 C 176.83 214.063 178.08 227.513 178.48 239.353 C 173.34 243.933 156.25 243.153 139.1 242.353 C 139.05 231.203 134.47 220.913 122.02 198.083 C 120.605 195.689 120.347 192.785 121.318 190.179 C 122.288 187.574 124.384 185.546 127.02 184.663 C 128.51 184.163 130.1 183.663 131.75 183.203 C 137.476 181.462 143.317 180.125 149.23 179.203 C 151.17 178.943 153.23 178.743 155.13 178.573 C 162.222 178.016 168.714 182.559 170.62 189.413 L 170.62 189.413 Z " fill="rgb(255,255,255)"/></g><path d=" M 150.38 179.193 L 132.73 182.993 C 132.73 182.993 147.01 188.993 158.46 198.133 C 161.58 182.413 150.38 179.193 150.38 179.193 Z " fill="rgb(255,255,255)"/><path d=" M 128.52 163.223 C 131.32 168.503 135.52 178.383 132.73 182.973 C 132.73 182.973 148.66 187.573 157.16 194.883 C 158.3 183.063 150.38 179.193 150.38 179.193 C 143.66 179.193 142.24 174.333 142.02 169.793 L 128.52 163.223 Z " fill="rgb(255,195,189)"/><path d=" M 143.49 184.483 C 139.851 184.407 136.228 183.982 132.67 183.213 C 132.605 183.198 132.549 183.159 132.513 183.102 C 132.477 183.046 132.466 182.978 132.48 182.913 C 132.515 182.78 132.646 182.697 132.78 182.723 C 132.88 182.723 142.31 184.833 147.78 183.583 C 149.53 183.183 150.56 182.583 150.78 181.673 C 150.899 180.791 150.608 179.903 149.99 179.263 C 149.942 179.216 149.914 179.151 149.914 179.083 C 149.914 179.015 149.942 178.95 149.99 178.903 C 150.088 178.807 150.243 178.807 150.34 178.903 C 151.087 179.67 151.425 180.746 151.25 181.803 C 150.93 182.803 149.78 183.613 147.84 184.053 C 146.41 184.351 144.952 184.495 143.49 184.483 Z " fill="rgb(255,255,255)"/><path d=" M 150.6 184.623 L 150.6 184.623 C 150.17 184.923 149.581 184.84 149.25 184.433 L 148.7 183.713 C 148.4 183.282 148.483 182.693 148.89 182.363 L 148.89 182.363 C 149.321 182.062 149.91 182.145 150.24 182.553 L 150.79 183.283 C 151.085 183.711 151.002 184.293 150.6 184.623 L 150.6 184.623 Z " fill="rgb(64,123,255)"/><g opacity="0.2"><path d=" M 134.02 165.903 L 142.02 169.793 C 142.057 170.859 142.191 171.92 142.42 172.963 C 139.92 173.163 135.83 171.333 134.82 168.963 C 134.37 168 134.099 166.963 134.02 165.903 L 134.02 165.903 Z " fill="rgb(0,0,0)"/></g><path d=" M 120.46 155.213 C 124.58 163.753 126.13 167.443 132.46 170.373 C 141.93 174.783 151.61 168.493 150.15 159.053 C 148.84 150.553 142.34 138.053 132.27 137.543 C 127.867 137.17 123.608 139.219 121.152 142.893 C 118.697 146.568 118.431 151.286 120.46 155.213 L 120.46 155.213 Z " fill="rgb(255,195,189)"/><path d=" M 124.08 142.813 C 128.55 149.163 128.32 159.583 123.08 160.993 C 115.08 159.753 113.34 157.683 113.34 157.683 C 113.34 157.683 115.9 138.093 124.08 142.813 Z " fill="rgb(38,50,56)"/><path d=" M 117.78 145.423 C 129.6 146.933 139.01 141.993 140.78 139.223 C 130.08 131.993 118.95 138.143 117.78 145.423 Z " fill="rgb(38,50,56)"/><path d=" M 142.46 150.283 C 143.832 151.726 145.381 152.989 147.07 154.043 C 146.49 155.273 144.67 155.443 144.67 155.443 L 142.46 150.283 Z " fill="rgb(237,132,126)"/><path d=" M 141.89 159.383 C 142.322 159.31 142.746 159.203 143.16 159.063 C 143.217 159.043 143.263 159 143.286 158.945 C 143.308 158.889 143.307 158.827 143.28 158.773 C 143.23 158.652 143.094 158.591 142.97 158.633 C 141.078 159.3 138.985 159.072 137.28 158.013 C 137.191 157.926 137.05 157.926 136.96 158.013 C 136.894 158.119 136.92 158.258 137.02 158.333 C 138.458 159.273 140.193 159.647 141.89 159.383 L 141.89 159.383 Z " fill="rgb(38,50,56)"/><path d=" M 120.99 163.993 C 122.563 164.931 124.46 165.16 126.21 164.623 C 128.33 163.883 127.71 161.303 125.71 159.623 C 123.92 158.143 120.65 156.753 119.21 158.383 C 117.77 160.013 118.85 162.803 120.99 163.993 Z " fill="rgb(255,195,189)"/><path d=" M 124.76 164.513 C 123.579 164.513 122.515 165.224 122.063 166.315 C 121.611 167.406 121.861 168.662 122.696 169.497 C 123.531 170.332 124.787 170.582 125.878 170.13 C 126.969 169.678 127.68 168.614 127.68 167.433 C 127.683 166.657 127.376 165.913 126.828 165.365 C 126.28 164.817 125.536 164.51 124.76 164.513 L 124.76 164.513 Z  M 124.76 169.663 C 123.854 169.663 123.036 169.116 122.69 168.278 C 122.344 167.439 122.537 166.475 123.18 165.835 C 123.823 165.195 124.788 165.006 125.625 165.356 C 126.461 165.706 127.004 166.526 127 167.433 C 127 168.026 126.764 168.595 126.344 169.013 C 125.923 169.432 125.354 169.665 124.76 169.663 L 124.76 169.663 Z " fill="rgb(255,255,255)"/><path d=" M 131.27 149.613 C 131.376 149.551 131.446 149.444 131.46 149.323 C 131.598 148.183 132.302 147.191 133.33 146.683 C 133.441 146.637 133.527 146.547 133.569 146.436 C 133.611 146.324 133.604 146.199 133.55 146.093 C 133.434 145.862 133.158 145.761 132.92 145.863 C 131.605 146.476 130.698 147.723 130.52 149.163 C 130.507 149.347 130.599 149.523 130.757 149.618 C 130.916 149.713 131.114 149.711 131.27 149.613 L 131.27 149.613 Z " fill="rgb(38,50,56)"/><path d=" M 145.47 144.313 C 145.59 144.308 145.7 144.249 145.77 144.153 C 145.916 143.945 145.867 143.659 145.66 143.513 C 144.492 142.537 142.933 142.167 141.45 142.513 C 141.336 142.548 141.243 142.631 141.193 142.739 C 141.143 142.848 141.142 142.973 141.19 143.083 C 141.284 143.322 141.543 143.452 141.79 143.383 C 142.963 143.114 144.194 143.406 145.12 144.173 C 145.208 144.272 145.338 144.324 145.47 144.313 L 145.47 144.313 Z " fill="rgb(38,50,56)"/><path d=" M 145.33 147.693 C 145.58 148.433 145.4 149.163 144.91 149.333 C 144.42 149.503 143.82 149.023 143.56 148.283 C 143.3 147.543 143.49 146.803 143.98 146.643 C 144.47 146.483 145.08 146.993 145.33 147.693 Z " fill="rgb(38,50,56)"/><path d=" M 136.66 151.263 C 136.92 152.003 136.73 152.733 136.24 152.903 C 135.75 153.073 135.15 152.593 134.89 151.903 C 134.63 151.213 134.82 150.423 135.31 150.263 C 135.8 150.103 136.4 150.513 136.66 151.263 Z " fill="rgb(38,50,56)"/><line x1="134.89" y1="150.643" x2="135.71" y2="148.883"/><line x1="143.5" y1="147.183" x2="144.32" y2="145.423"/><g opacity="0.5"><path d=" M 133.08 199.143 L 124.4 202.403 C 127.97 209.023 130.8 214.503 132.97 219.263 C 132.442 212.565 132.478 205.834 133.08 199.143 L 133.08 199.143 Z " fill="rgb(64,123,255)"/></g><path d=" M 159.86 258.053 L 158.17 255.643 C 157.533 254.737 156.498 254.193 155.39 254.183 L 150.21 254.183 C 148.143 254.165 146.194 255.148 144.98 256.823 L 144.23 257.823 C 146.76 262.023 152.58 264.683 152.58 264.683 L 154.16 265.633 C 154.802 266.044 155.581 266.18 156.324 266.011 C 157.067 265.842 157.711 265.381 158.11 264.733 L 160.02 261.643 C 160.68 260.519 160.618 259.113 159.86 258.053 Z " fill="rgb(255,195,189)"/><path d=" M 136.28 196.673 C 136.02 197.223 135.68 198.023 135.39 198.673 L 134.5 200.893 C 133.92 202.383 133.37 203.893 132.87 205.403 C 131.874 208.4 131.049 211.451 130.4 214.543 C 130.1 216.063 129.85 217.543 129.66 219.063 C 129.501 220.507 129.414 221.959 129.4 223.413 C 129.323 225.868 129.755 228.313 130.67 230.593 L 131.05 231.393 C 131.078 231.458 131.102 231.524 131.12 231.593 C 131.76 233.583 132.745 235.445 134.03 237.093 C 135.522 239.094 137.16 240.983 138.93 242.743 C 140.77 244.543 142.74 246.293 144.78 247.973 C 145.78 248.813 146.86 249.623 147.92 250.413 C 148.98 251.203 150.1 252.003 151.09 252.653 L 145.42 261.653 C 144.06 260.803 142.91 260.023 141.68 259.193 C 140.45 258.363 139.29 257.513 138.11 256.643 C 135.75 254.923 133.44 253.093 131.19 251.113 C 128.854 249.106 126.668 246.93 124.65 244.603 C 123.558 243.341 122.556 242.004 121.65 240.603 C 120.641 239.071 119.793 237.439 119.12 235.733 L 119.57 236.733 C 117.434 232.828 116.197 228.496 115.95 224.053 C 115.698 220.158 115.805 216.248 116.27 212.373 C 116.708 208.673 117.349 205.001 118.19 201.373 Q 118.79 198.683 119.53 196.013 C 119.77 195.123 120.02 194.243 120.29 193.353 C 120.56 192.463 120.82 191.623 121.19 190.563 L 136.28 196.673 Z " fill="rgb(64,123,255)"/><g opacity="0.5"><path d=" M 136.28 196.673 C 136.02 197.223 135.68 198.023 135.39 198.673 L 134.5 200.893 C 133.92 202.383 133.37 203.893 132.87 205.403 C 131.874 208.4 131.049 211.451 130.4 214.543 C 130.1 216.063 129.85 217.543 129.66 219.063 C 129.501 220.507 129.414 221.959 129.4 223.413 C 129.323 225.868 129.755 228.313 130.67 230.593 L 131.05 231.393 C 131.078 231.458 131.102 231.524 131.12 231.593 C 131.76 233.583 132.745 235.445 134.03 237.093 C 135.522 239.094 137.16 240.983 138.93 242.743 C 140.77 244.543 142.74 246.293 144.78 247.973 C 145.78 248.813 146.86 249.623 147.92 250.413 C 148.98 251.203 150.1 252.003 151.09 252.653 L 145.42 261.653 C 144.06 260.803 142.91 260.023 141.68 259.193 C 140.45 258.363 139.29 257.513 138.11 256.643 C 135.75 254.923 133.44 253.093 131.19 251.113 C 128.854 249.106 126.668 246.93 124.65 244.603 C 123.558 243.341 122.556 242.004 121.65 240.603 C 120.641 239.071 119.793 237.439 119.12 235.733 L 119.57 236.733 C 117.434 232.828 116.197 228.496 115.95 224.053 C 115.698 220.158 115.805 216.248 116.27 212.373 C 116.708 208.673 117.349 205.001 118.19 201.373 Q 118.79 198.683 119.53 196.013 C 119.77 195.123 120.02 194.243 120.29 193.353 C 120.56 192.463 120.82 191.623 121.19 190.563 L 136.28 196.673 Z " fill="rgb(255,255,255)"/></g></g><g><path d=" M 312.66 105.323 C 312.43 105.319 312.231 105.158 312.18 104.933 C 312.148 104.804 312.168 104.667 312.238 104.554 C 312.308 104.441 312.421 104.361 312.55 104.333 C 313.66 104.079 314.75 103.745 315.81 103.333 C 316.067 103.23 316.358 103.356 316.46 103.613 C 316.563 103.869 316.437 104.16 316.18 104.263 C 315.076 104.704 313.939 105.062 312.78 105.333 L 312.66 105.323 Z " fill="rgb(64,123,255)"/><path d=" M 275.08 278.073 C 274.814 278.068 274.596 277.859 274.58 277.593 C 274.575 277.46 274.623 277.331 274.713 277.233 C 274.803 277.136 274.928 277.078 275.06 277.073 C 277.37 276.953 279.73 276.743 282.06 276.433 C 282.332 276.403 282.579 276.592 282.62 276.863 C 282.64 276.994 282.606 277.128 282.525 277.234 C 282.443 277.34 282.323 277.408 282.19 277.423 C 279.83 277.743 277.44 277.953 275.1 278.063 L 275.08 278.073 Z  M 289.08 276.223 C 288.804 276.253 288.556 276.054 288.525 275.778 C 288.495 275.501 288.694 275.253 288.97 275.223 C 291.32 274.713 293.61 274.113 295.77 273.433 C 295.945 273.36 296.146 273.393 296.289 273.516 C 296.432 273.64 296.493 273.833 296.447 274.017 C 296.4 274.2 296.255 274.342 296.07 274.383 C 293.88 275.073 291.57 275.683 289.18 276.203 L 289.08 276.223 Z  M 302.53 271.903 C 302.336 271.904 302.16 271.79 302.08 271.613 C 302.023 271.492 302.015 271.353 302.06 271.227 C 302.106 271.102 302.199 270.999 302.32 270.943 C 304.016 270.185 305.65 269.299 307.21 268.293 L 308.4 267.493 C 308.63 267.342 308.938 267.404 309.09 267.633 C 309.166 267.741 309.196 267.875 309.171 268.005 C 309.147 268.135 309.071 268.25 308.96 268.323 L 307.76 269.123 C 306.166 270.159 304.494 271.072 302.76 271.853 C 302.698 271.882 302.63 271.899 302.56 271.903 L 302.53 271.903 Z  M 314.3 264.113 C 314.156 264.111 314.018 264.05 313.92 263.943 C 313.742 263.732 313.764 263.417 313.97 263.233 C 315.742 261.704 317.384 260.032 318.88 258.233 C 319.062 258.023 319.377 257.997 319.59 258.173 C 319.693 258.256 319.757 258.378 319.768 258.51 C 319.78 258.642 319.737 258.773 319.65 258.873 C 318.123 260.7 316.45 262.402 314.65 263.963 C 314.566 264.051 314.452 264.104 314.33 264.113 L 314.3 264.113 Z  M 323.19 253.213 C 323.11 253.213 323.031 253.192 322.96 253.153 C 322.715 253.028 322.617 252.728 322.74 252.483 Q 323.23 251.543 323.64 250.563 C 324.258 249.07 324.76 247.532 325.14 245.963 C 325.207 245.686 325.484 245.516 325.76 245.583 C 326.037 245.649 326.207 245.926 326.14 246.203 C 325.751 247.825 325.232 249.413 324.59 250.953 C 324.31 251.623 324 252.283 323.66 252.953 C 323.574 253.115 323.404 253.215 323.22 253.213 L 323.19 253.213 Z  M 326.66 239.593 L 326.66 239.593 C 326.526 239.585 326.4 239.523 326.312 239.422 C 326.223 239.32 326.179 239.187 326.19 239.053 C 326.28 237.693 326.33 236.253 326.33 234.663 C 326.33 233.783 326.33 232.913 326.33 232.033 C 326.325 231.898 326.374 231.767 326.466 231.67 C 326.558 231.572 326.686 231.515 326.82 231.513 C 326.954 231.507 327.084 231.556 327.18 231.649 C 327.276 231.741 327.331 231.869 327.33 232.003 C 327.33 232.893 327.33 233.773 327.33 234.663 C 327.33 236.283 327.28 237.743 327.19 239.123 C 327.175 239.387 326.955 239.593 326.69 239.593 L 326.66 239.593 Z  M 326.47 225.443 C 326.206 225.443 325.986 225.237 325.97 224.973 C 325.88 222.973 325.79 220.753 325.79 218.573 L 325.79 217.863 C 325.781 217.728 325.831 217.597 325.927 217.502 C 326.024 217.408 326.156 217.361 326.29 217.373 C 326.567 217.373 326.79 217.596 326.79 217.873 L 326.79 218.573 C 326.79 220.733 326.88 222.903 326.97 224.923 C 326.976 225.055 326.928 225.185 326.838 225.282 C 326.748 225.38 326.623 225.437 326.49 225.443 L 326.47 225.443 Z  M 369.22 219.283 C 368.31 219.283 367.42 219.283 366.57 219.223 C 366.438 219.217 366.313 219.16 366.223 219.062 C 366.133 218.965 366.085 218.835 366.09 218.703 C 366.096 218.57 366.153 218.445 366.251 218.355 C 366.348 218.265 366.478 218.217 366.61 218.223 C 367.45 218.223 368.33 218.283 369.22 218.283 C 370.687 218.29 372.152 218.217 373.61 218.063 C 373.887 218.032 374.135 218.231 374.165 218.508 C 374.196 218.784 373.997 219.032 373.72 219.063 C 372.235 219.215 370.743 219.289 369.25 219.283 L 369.22 219.283 Z  M 359.53 218.773 L 359.53 218.773 C 357.19 218.593 354.81 218.383 352.47 218.143 C 352.338 218.13 352.215 218.065 352.131 217.961 C 352.046 217.858 352.006 217.725 352.02 217.593 C 352.033 217.46 352.098 217.337 352.202 217.253 C 352.305 217.168 352.438 217.129 352.57 217.143 C 354.9 217.383 357.27 217.603 359.57 217.783 C 359.847 217.783 360.07 218.006 360.07 218.283 C 360.07 218.559 359.847 218.783 359.57 218.783 L 359.53 218.773 Z  M 380.53 217.343 C 380.335 217.34 380.157 217.228 380.07 217.053 C 379.958 216.801 380.07 216.506 380.32 216.393 C 382.417 215.504 384.193 213.997 385.41 212.073 C 385.495 211.904 385.667 211.797 385.856 211.797 C 386.045 211.796 386.218 211.902 386.303 212.07 C 386.389 212.238 386.372 212.441 386.26 212.593 C 384.944 214.689 383.018 216.333 380.74 217.303 C 380.674 217.33 380.602 217.344 380.53 217.343 L 380.53 217.343 Z  M 345.48 217.343 L 345.42 217.343 C 343.09 217.043 340.72 216.703 338.42 216.343 C 338.289 216.323 338.171 216.252 338.092 216.145 C 338.013 216.038 337.98 215.904 338 215.773 C 338.046 215.502 338.298 215.316 338.57 215.353 C 340.89 215.713 343.24 216.053 345.57 216.353 C 345.847 216.369 346.057 216.606 346.04 216.883 C 346.024 217.159 345.787 217.369 345.51 217.353 L 345.48 217.343 Z  M 331.48 215.173 L 331.39 215.173 C 329.08 214.753 326.74 214.293 324.44 213.813 C 324.164 213.757 323.985 213.489 324.04 213.213 C 324.096 212.936 324.364 212.757 324.64 212.813 C 326.94 213.293 329.27 213.753 331.57 214.173 C 331.702 214.195 331.819 214.268 331.896 214.377 C 331.973 214.486 332.004 214.621 331.98 214.753 C 331.93 214.983 331.727 215.149 331.49 215.153 L 331.48 215.173 Z  M 317.63 212.273 L 317.51 212.273 C 315.23 211.733 312.91 211.153 310.64 210.553 C 310.364 210.484 310.196 210.204 310.265 209.928 C 310.334 209.651 310.614 209.484 310.89 209.553 C 313.16 210.153 315.46 210.733 317.74 211.263 C 318.01 211.332 318.177 211.6 318.12 211.873 C 318.066 212.094 317.868 212.25 317.64 212.253 L 317.63 212.273 Z  M 326.81 211.333 L 326.73 211.333 C 326.46 211.287 326.274 211.035 326.31 210.763 C 326.661 208.385 327.254 206.049 328.08 203.793 C 328.174 203.533 328.461 203.399 328.72 203.493 C 328.98 203.587 329.114 203.873 329.02 204.133 C 328.224 206.322 327.654 208.587 327.32 210.893 C 327.281 211.137 327.068 211.316 326.82 211.313 L 326.81 211.333 Z  M 303.94 208.663 C 303.894 208.672 303.847 208.672 303.8 208.663 C 301.55 208.013 299.26 207.313 297.02 206.593 C 296.893 206.554 296.787 206.465 296.726 206.346 C 296.666 206.227 296.657 206.089 296.7 205.963 C 296.786 205.7 297.068 205.557 297.33 205.643 C 299.56 206.353 301.83 207.053 304.08 207.703 C 304.346 207.78 304.498 208.058 304.42 208.323 C 304.348 208.519 304.159 208.647 303.95 208.643 L 303.94 208.663 Z  M 387.25 206.093 C 387.011 206.088 386.807 205.917 386.76 205.683 C 386.22 203.478 384.978 201.509 383.22 200.073 C 383.126 199.98 383.073 199.854 383.073 199.723 C 383.073 199.591 383.126 199.465 383.22 199.373 C 383.314 199.278 383.442 199.225 383.575 199.225 C 383.709 199.225 383.837 199.278 383.93 199.373 C 385.853 200.95 387.205 203.114 387.78 205.533 C 387.807 205.663 387.781 205.798 387.708 205.908 C 387.635 206.019 387.52 206.096 387.39 206.123 L 387.25 206.093 Z  M 290.47 204.343 C 290.414 204.353 290.357 204.353 290.3 204.343 C 288.02 203.533 285.79 202.693 283.65 201.853 C 283.397 201.747 283.274 201.459 283.37 201.203 C 283.419 201.079 283.515 200.98 283.637 200.928 C 283.759 200.875 283.897 200.873 284.02 200.923 C 286.14 201.763 288.37 202.593 290.63 203.403 C 290.889 203.493 291.027 203.773 290.94 204.033 C 290.858 204.212 290.678 204.325 290.48 204.323 L 290.47 204.343 Z  M 277.31 199.113 C 277.245 199.127 277.176 199.127 277.11 199.113 C 274.91 198.113 272.75 197.113 270.7 196.063 C 270.527 195.991 270.409 195.828 270.394 195.641 C 270.379 195.454 270.47 195.275 270.629 195.176 C 270.789 195.077 270.99 195.076 271.15 195.173 C 273.15 196.173 275.33 197.173 277.52 198.173 C 277.797 198.231 277.973 198.501 277.915 198.778 C 277.857 199.054 277.587 199.231 277.31 199.173 L 277.31 199.113 Z  M 331.83 198.243 C 331.724 198.242 331.62 198.211 331.53 198.153 C 331.31 197.987 331.265 197.674 331.43 197.453 C 332.738 195.658 334.345 194.102 336.18 192.853 L 336.7 192.523 C 336.935 192.376 337.244 192.448 337.39 192.683 C 337.537 192.917 337.465 193.226 337.23 193.373 L 336.74 193.683 C 334.999 194.868 333.474 196.342 332.23 198.043 C 332.133 198.157 331.991 198.223 331.84 198.223 L 331.83 198.243 Z  M 377.7 196.243 C 377.617 196.242 377.535 196.221 377.46 196.183 C 376.62 195.733 375.8 195.313 375.02 194.923 C 373.75 194.303 372.44 193.723 371.12 193.203 C 370.941 193.148 370.807 192.998 370.774 192.813 C 370.74 192.629 370.813 192.441 370.962 192.327 C 371.111 192.213 371.311 192.192 371.48 192.273 C 372.83 192.793 374.17 193.393 375.48 194.033 C 376.26 194.423 377.1 194.843 377.95 195.303 C 378.189 195.438 378.278 195.739 378.15 195.983 C 378.059 196.137 377.89 196.229 377.71 196.223 L 377.7 196.243 Z  M 264.7 192.693 C 264.612 192.694 264.525 192.67 264.45 192.623 C 262.36 191.413 260.33 190.153 258.45 188.863 C 258.249 188.701 258.205 188.412 258.347 188.197 C 258.49 187.982 258.773 187.911 259 188.033 C 260.9 189.303 262.91 190.563 265 191.763 C 265.193 191.877 265.286 192.106 265.228 192.322 C 265.17 192.539 264.975 192.69 264.75 192.693 L 264.7 192.693 Z  M 364.55 191.123 L 364.43 191.123 C 362.156 190.583 359.847 190.202 357.52 189.983 C 357.248 189.956 357.047 189.715 357.07 189.443 C 357.102 189.169 357.346 188.969 357.62 188.993 C 359.978 189.216 362.317 189.604 364.62 190.153 C 364.897 190.183 365.096 190.431 365.065 190.708 C 365.035 190.984 364.787 191.183 364.51 191.153 L 364.55 191.123 Z  M 343.5 190.803 C 343.267 190.8 343.065 190.639 343.01 190.413 C 342.948 190.145 343.113 189.877 343.38 189.813 C 345.137 189.397 346.922 189.113 348.72 188.963 C 349.3 188.963 349.89 188.873 350.47 188.843 C 350.604 188.829 350.738 188.871 350.839 188.961 C 350.94 189.05 350.998 189.178 351 189.313 C 351.012 189.585 350.803 189.816 350.53 189.833 C 349.95 189.833 349.38 189.913 348.81 189.963 C 347.063 190.107 345.328 190.382 343.62 190.783 L 343.5 190.803 Z  M 252.97 184.803 C 252.859 184.805 252.75 184.77 252.66 184.703 C 250.76 183.213 248.94 181.653 247.25 180.083 C 247.156 179.989 247.103 179.861 247.103 179.728 C 247.103 179.594 247.156 179.467 247.25 179.373 C 247.448 179.181 247.763 179.181 247.96 179.373 C 249.63 180.933 251.43 182.473 253.31 183.943 C 253.525 184.114 253.561 184.427 253.39 184.643 C 253.282 184.748 253.13 184.796 252.98 184.773 L 252.97 184.803 Z  M 242.65 175.153 C 242.506 175.151 242.368 175.09 242.27 174.983 C 240.699 173.196 239.233 171.32 237.88 169.363 C 237.725 169.135 237.778 168.825 238 168.663 C 238.232 168.514 238.538 168.571 238.7 168.793 C 240.05 170.711 241.513 172.548 243.08 174.293 C 243.271 174.487 243.271 174.798 243.08 174.993 C 242.968 175.098 242.813 175.146 242.66 175.123 L 242.65 175.153 Z  M 234.65 163.523 C 234.462 163.522 234.291 163.413 234.21 163.243 C 233.114 161.129 232.168 158.94 231.38 156.693 C 231.293 156.431 231.431 156.147 231.69 156.053 C 231.95 155.966 232.231 156.104 232.32 156.363 C 233.094 158.569 234.023 160.718 235.1 162.793 C 235.224 163.038 235.126 163.338 234.88 163.463 C 234.808 163.492 234.728 163.502 234.65 163.493 L 234.65 163.523 Z  M 230.08 150.163 C 229.835 150.165 229.625 149.986 229.59 149.743 C 229.49 149.213 229.41 148.683 229.33 148.143 C 229.086 146.38 228.962 144.602 228.96 142.823 L 228.96 142.613 C 228.96 142.336 229.184 142.113 229.46 142.113 C 229.737 142.113 229.96 142.336 229.96 142.613 L 229.96 142.813 C 229.959 144.546 230.079 146.277 230.32 147.993 C 230.4 148.523 230.48 149.043 230.57 149.563 C 230.619 149.833 230.44 150.092 230.17 150.143 L 230.08 150.163 Z  M 230.13 136.083 L 230.04 136.083 C 229.77 136.032 229.592 135.773 229.64 135.503 C 230.075 133.154 230.707 130.845 231.53 128.603 C 231.633 128.346 231.918 128.214 232.18 128.303 C 232.436 128.401 232.565 128.686 232.47 128.943 C 231.662 131.132 231.043 133.387 230.62 135.683 C 230.575 135.938 230.338 136.113 230.08 136.083 L 230.13 136.083 Z  M 235.01 122.873 C 234.923 122.868 234.838 122.844 234.76 122.803 C 234.523 122.66 234.443 122.353 234.58 122.113 C 235.783 120.047 237.172 118.095 238.73 116.283 C 238.918 116.114 239.202 116.111 239.393 116.276 C 239.584 116.441 239.621 116.723 239.48 116.933 C 237.982 118.708 236.644 120.612 235.48 122.623 C 235.38 122.8 235.182 122.899 234.98 122.873 L 235.01 122.873 Z  M 244.22 112.223 C 244.009 112.221 243.821 112.087 243.751 111.887 C 243.682 111.687 243.745 111.465 243.91 111.333 C 245.8 109.866 247.826 108.583 249.96 107.503 C 250.209 107.378 250.511 107.479 250.635 107.728 C 250.76 107.976 250.659 108.278 250.41 108.403 C 248.334 109.455 246.362 110.7 244.52 112.123 C 244.426 112.195 244.309 112.23 244.19 112.223 L 244.22 112.223 Z  M 305.64 105.993 L 305.64 105.993 C 303.259 105.94 300.884 105.73 298.53 105.363 C 298.254 105.324 298.062 105.069 298.1 104.793 C 298.139 104.516 298.394 104.324 298.67 104.363 C 300.987 104.727 303.326 104.934 305.67 104.983 C 305.947 104.983 306.17 105.206 306.17 105.483 C 306.17 105.759 305.947 105.983 305.67 105.983 L 305.64 105.993 Z  M 256.7 105.733 C 256.424 105.777 256.165 105.589 256.12 105.313 C 256.076 105.036 256.264 104.777 256.54 104.733 C 258.803 103.998 261.107 103.397 263.44 102.933 C 263.572 102.906 263.708 102.934 263.819 103.009 C 263.93 103.084 264.006 103.201 264.03 103.333 C 264.06 103.462 264.035 103.597 263.961 103.707 C 263.887 103.817 263.771 103.891 263.64 103.913 C 261.345 104.372 259.078 104.963 256.85 105.683 L 256.7 105.733 Z  M 291.62 104.163 L 291.53 104.163 C 289.38 103.763 286.95 103.313 284.53 102.973 C 284.261 102.931 284.075 102.683 284.11 102.413 C 284.125 102.28 284.193 102.16 284.299 102.079 C 284.405 101.997 284.539 101.963 284.67 101.983 C 287.07 102.323 289.51 102.783 291.67 103.183 C 291.94 103.233 292.119 103.492 292.07 103.763 C 292.035 103.991 291.851 104.168 291.62 104.193 L 291.62 104.163 Z  M 270.54 102.873 C 270.264 102.889 270.027 102.679 270.01 102.403 C 269.994 102.126 270.204 101.889 270.48 101.873 C 271.75 101.733 273.11 101.603 274.48 101.493 C 275.36 101.423 276.29 101.383 277.24 101.383 L 277.57 101.383 C 277.703 101.385 277.829 101.44 277.921 101.536 C 278.013 101.632 278.063 101.76 278.06 101.893 C 278.045 102.16 277.829 102.373 277.56 102.383 L 277.24 102.383 C 276.32 102.383 275.42 102.383 274.55 102.483 C 273.17 102.593 271.83 102.723 270.55 102.873 L 270.54 102.873 Z " fill="rgb(64,123,255)"/><path d=" M 267.9 278.093 L 267.9 278.093 C 266.71 278.043 265.53 277.953 264.39 277.843 C 264.258 277.833 264.136 277.769 264.051 277.668 C 263.967 277.566 263.927 277.434 263.94 277.303 C 263.948 277.169 264.01 277.045 264.112 276.96 C 264.215 276.875 264.348 276.836 264.48 276.853 C 265.61 276.963 266.77 277.043 267.95 277.093 C 268.227 277.093 268.45 277.316 268.45 277.593 C 268.45 277.869 268.227 278.093 267.95 278.093 L 267.9 278.093 Z " fill="rgb(64,123,255)"/><g style="opacity:0.6000000000000001;"><g opacity="0.6000000000000001"><path d=" M 312.66 105.323 C 312.43 105.319 312.231 105.158 312.18 104.933 C 312.148 104.804 312.168 104.667 312.238 104.554 C 312.308 104.441 312.421 104.361 312.55 104.333 C 313.66 104.079 314.75 103.745 315.81 103.333 C 316.067 103.23 316.358 103.356 316.46 103.613 C 316.563 103.869 316.437 104.16 316.18 104.263 C 315.076 104.704 313.939 105.062 312.78 105.333 L 312.66 105.323 Z " fill="rgb(255,255,255)"/></g><g opacity="0.6000000000000001"><path d=" M 275.08 278.073 C 274.814 278.068 274.596 277.859 274.58 277.593 C 274.575 277.46 274.623 277.331 274.713 277.233 C 274.803 277.136 274.928 277.078 275.06 277.073 C 277.37 276.953 279.73 276.743 282.06 276.433 C 282.332 276.403 282.579 276.592 282.62 276.863 C 282.64 276.994 282.606 277.128 282.525 277.234 C 282.443 277.34 282.323 277.408 282.19 277.423 C 279.83 277.743 277.44 277.953 275.1 278.063 L 275.08 278.073 Z  M 289.08 276.223 C 288.804 276.253 288.556 276.054 288.525 275.778 C 288.495 275.501 288.694 275.253 288.97 275.223 C 291.32 274.713 293.61 274.113 295.77 273.433 C 295.945 273.36 296.146 273.393 296.289 273.516 C 296.432 273.64 296.493 273.833 296.447 274.017 C 296.4 274.2 296.255 274.342 296.07 274.383 C 293.88 275.073 291.57 275.683 289.18 276.203 L 289.08 276.223 Z  M 302.53 271.903 C 302.336 271.904 302.16 271.79 302.08 271.613 C 302.023 271.492 302.015 271.353 302.06 271.227 C 302.106 271.102 302.199 270.999 302.32 270.943 C 304.016 270.185 305.65 269.299 307.21 268.293 L 308.4 267.493 C 308.63 267.342 308.938 267.404 309.09 267.633 C 309.166 267.741 309.196 267.875 309.171 268.005 C 309.147 268.135 309.071 268.25 308.96 268.323 L 307.76 269.123 C 306.166 270.159 304.494 271.072 302.76 271.853 C 302.698 271.882 302.63 271.899 302.56 271.903 L 302.53 271.903 Z  M 314.3 264.113 C 314.156 264.111 314.018 264.05 313.92 263.943 C 313.742 263.732 313.764 263.417 313.97 263.233 C 315.742 261.704 317.384 260.032 318.88 258.233 C 319.062 258.023 319.377 257.997 319.59 258.173 C 319.693 258.256 319.757 258.378 319.768 258.51 C 319.78 258.642 319.737 258.773 319.65 258.873 C 318.123 260.7 316.45 262.402 314.65 263.963 C 314.566 264.051 314.452 264.104 314.33 264.113 L 314.3 264.113 Z  M 323.19 253.213 C 323.11 253.213 323.031 253.192 322.96 253.153 C 322.715 253.028 322.617 252.728 322.74 252.483 Q 323.23 251.543 323.64 250.563 C 324.258 249.07 324.76 247.532 325.14 245.963 C 325.207 245.686 325.484 245.516 325.76 245.583 C 326.037 245.649 326.207 245.926 326.14 246.203 C 325.751 247.825 325.232 249.413 324.59 250.953 C 324.31 251.623 324 252.283 323.66 252.953 C 323.574 253.115 323.404 253.215 323.22 253.213 L 323.19 253.213 Z  M 326.66 239.593 L 326.66 239.593 C 326.526 239.585 326.4 239.523 326.312 239.422 C 326.223 239.32 326.179 239.187 326.19 239.053 C 326.28 237.693 326.33 236.253 326.33 234.663 C 326.33 233.783 326.33 232.913 326.33 232.033 C 326.325 231.898 326.374 231.767 326.466 231.67 C 326.558 231.572 326.686 231.515 326.82 231.513 C 326.954 231.507 327.084 231.556 327.18 231.649 C 327.276 231.741 327.331 231.869 327.33 232.003 C 327.33 232.893 327.33 233.773 327.33 234.663 C 327.33 236.283 327.28 237.743 327.19 239.123 C 327.175 239.387 326.955 239.593 326.69 239.593 L 326.66 239.593 Z  M 326.47 225.443 C 326.206 225.443 325.986 225.237 325.97 224.973 C 325.88 222.973 325.79 220.753 325.79 218.573 L 325.79 217.863 C 325.781 217.728 325.831 217.597 325.927 217.502 C 326.024 217.408 326.156 217.361 326.29 217.373 C 326.567 217.373 326.79 217.596 326.79 217.873 L 326.79 218.573 C 326.79 220.733 326.88 222.903 326.97 224.923 C 326.976 225.055 326.928 225.185 326.838 225.282 C 326.748 225.38 326.623 225.437 326.49 225.443 L 326.47 225.443 Z  M 369.22 219.283 C 368.31 219.283 367.42 219.283 366.57 219.223 C 366.438 219.217 366.313 219.16 366.223 219.062 C 366.133 218.965 366.085 218.835 366.09 218.703 C 366.096 218.57 366.153 218.445 366.251 218.355 C 366.348 218.265 366.478 218.217 366.61 218.223 C 367.45 218.223 368.33 218.283 369.22 218.283 C 370.687 218.29 372.152 218.217 373.61 218.063 C 373.887 218.032 374.135 218.231 374.165 218.508 C 374.196 218.784 373.997 219.032 373.72 219.063 C 372.235 219.215 370.743 219.289 369.25 219.283 L 369.22 219.283 Z  M 359.53 218.773 L 359.53 218.773 C 357.19 218.593 354.81 218.383 352.47 218.143 C 352.338 218.13 352.215 218.065 352.131 217.961 C 352.046 217.858 352.006 217.725 352.02 217.593 C 352.033 217.46 352.098 217.337 352.202 217.253 C 352.305 217.168 352.438 217.129 352.57 217.143 C 354.9 217.383 357.27 217.603 359.57 217.783 C 359.847 217.783 360.07 218.006 360.07 218.283 C 360.07 218.559 359.847 218.783 359.57 218.783 L 359.53 218.773 Z  M 380.53 217.343 C 380.335 217.34 380.157 217.228 380.07 217.053 C 379.958 216.801 380.07 216.506 380.32 216.393 C 382.417 215.504 384.193 213.997 385.41 212.073 C 385.495 211.904 385.667 211.797 385.856 211.797 C 386.045 211.796 386.218 211.902 386.303 212.07 C 386.389 212.238 386.372 212.441 386.26 212.593 C 384.944 214.689 383.018 216.333 380.74 217.303 C 380.674 217.33 380.602 217.344 380.53 217.343 L 380.53 217.343 Z  M 345.48 217.343 L 345.42 217.343 C 343.09 217.043 340.72 216.703 338.42 216.343 C 338.289 216.323 338.171 216.252 338.092 216.145 C 338.013 216.038 337.98 215.904 338 215.773 C 338.046 215.502 338.298 215.316 338.57 215.353 C 340.89 215.713 343.24 216.053 345.57 216.353 C 345.847 216.369 346.057 216.606 346.04 216.883 C 346.024 217.159 345.787 217.369 345.51 217.353 L 345.48 217.343 Z  M 331.48 215.173 L 331.39 215.173 C 329.08 214.753 326.74 214.293 324.44 213.813 C 324.164 213.757 323.985 213.489 324.04 213.213 C 324.096 212.936 324.364 212.757 324.64 212.813 C 326.94 213.293 329.27 213.753 331.57 214.173 C 331.702 214.195 331.819 214.268 331.896 214.377 C 331.973 214.486 332.004 214.621 331.98 214.753 C 331.93 214.983 331.727 215.149 331.49 215.153 L 331.48 215.173 Z  M 317.63 212.273 L 317.51 212.273 C 315.23 211.733 312.91 211.153 310.64 210.553 C 310.364 210.484 310.196 210.204 310.265 209.928 C 310.334 209.651 310.614 209.484 310.89 209.553 C 313.16 210.153 315.46 210.733 317.74 211.263 C 318.01 211.332 318.177 211.6 318.12 211.873 C 318.066 212.094 317.868 212.25 317.64 212.253 L 317.63 212.273 Z  M 326.81 211.333 L 326.73 211.333 C 326.46 211.287 326.274 211.035 326.31 210.763 C 326.661 208.385 327.254 206.049 328.08 203.793 C 328.174 203.533 328.461 203.399 328.72 203.493 C 328.98 203.587 329.114 203.873 329.02 204.133 C 328.224 206.322 327.654 208.587 327.32 210.893 C 327.281 211.137 327.068 211.316 326.82 211.313 L 326.81 211.333 Z  M 303.94 208.663 C 303.894 208.672 303.847 208.672 303.8 208.663 C 301.55 208.013 299.26 207.313 297.02 206.593 C 296.893 206.554 296.787 206.465 296.726 206.346 C 296.666 206.227 296.657 206.089 296.7 205.963 C 296.786 205.7 297.068 205.557 297.33 205.643 C 299.56 206.353 301.83 207.053 304.08 207.703 C 304.346 207.78 304.498 208.058 304.42 208.323 C 304.348 208.519 304.159 208.647 303.95 208.643 L 303.94 208.663 Z  M 387.25 206.093 C 387.011 206.088 386.807 205.917 386.76 205.683 C 386.22 203.478 384.978 201.509 383.22 200.073 C 383.126 199.98 383.073 199.854 383.073 199.723 C 383.073 199.591 383.126 199.465 383.22 199.373 C 383.314 199.278 383.442 199.225 383.575 199.225 C 383.709 199.225 383.837 199.278 383.93 199.373 C 385.853 200.95 387.205 203.114 387.78 205.533 C 387.807 205.663 387.781 205.798 387.708 205.908 C 387.635 206.019 387.52 206.096 387.39 206.123 L 387.25 206.093 Z  M 290.47 204.343 C 290.414 204.353 290.357 204.353 290.3 204.343 C 288.02 203.533 285.79 202.693 283.65 201.853 C 283.397 201.747 283.274 201.459 283.37 201.203 C 283.419 201.079 283.515 200.98 283.637 200.928 C 283.759 200.875 283.897 200.873 284.02 200.923 C 286.14 201.763 288.37 202.593 290.63 203.403 C 290.889 203.493 291.027 203.773 290.94 204.033 C 290.858 204.212 290.678 204.325 290.48 204.323 L 290.47 204.343 Z  M 277.31 199.113 C 277.245 199.127 277.176 199.127 277.11 199.113 C 274.91 198.113 272.75 197.113 270.7 196.063 C 270.527 195.991 270.409 195.828 270.394 195.641 C 270.379 195.454 270.47 195.275 270.629 195.176 C 270.789 195.077 270.99 195.076 271.15 195.173 C 273.15 196.173 275.33 197.173 277.52 198.173 C 277.797 198.231 277.973 198.501 277.915 198.778 C 277.857 199.054 277.587 199.231 277.31 199.173 L 277.31 199.113 Z  M 331.83 198.243 C 331.724 198.242 331.62 198.211 331.53 198.153 C 331.31 197.987 331.265 197.674 331.43 197.453 C 332.738 195.658 334.345 194.102 336.18 192.853 L 336.7 192.523 C 336.935 192.376 337.244 192.448 337.39 192.683 C 337.537 192.917 337.465 193.226 337.23 193.373 L 336.74 193.683 C 334.999 194.868 333.474 196.342 332.23 198.043 C 332.133 198.157 331.991 198.223 331.84 198.223 L 331.83 198.243 Z  M 377.7 196.243 C 377.617 196.242 377.535 196.221 377.46 196.183 C 376.62 195.733 375.8 195.313 375.02 194.923 C 373.75 194.303 372.44 193.723 371.12 193.203 C 370.941 193.148 370.807 192.998 370.774 192.813 C 370.74 192.629 370.813 192.441 370.962 192.327 C 371.111 192.213 371.311 192.192 371.48 192.273 C 372.83 192.793 374.17 193.393 375.48 194.033 C 376.26 194.423 377.1 194.843 377.95 195.303 C 378.189 195.438 378.278 195.739 378.15 195.983 C 378.059 196.137 377.89 196.229 377.71 196.223 L 377.7 196.243 Z  M 264.7 192.693 C 264.612 192.694 264.525 192.67 264.45 192.623 C 262.36 191.413 260.33 190.153 258.45 188.863 C 258.249 188.701 258.205 188.412 258.347 188.197 C 258.49 187.982 258.773 187.911 259 188.033 C 260.9 189.303 262.91 190.563 265 191.763 C 265.193 191.877 265.286 192.106 265.228 192.322 C 265.17 192.539 264.975 192.69 264.75 192.693 L 264.7 192.693 Z  M 364.55 191.123 L 364.43 191.123 C 362.156 190.583 359.847 190.202 357.52 189.983 C 357.248 189.956 357.047 189.715 357.07 189.443 C 357.102 189.169 357.346 188.969 357.62 188.993 C 359.978 189.216 362.317 189.604 364.62 190.153 C 364.897 190.183 365.096 190.431 365.065 190.708 C 365.035 190.984 364.787 191.183 364.51 191.153 L 364.55 191.123 Z  M 343.5 190.803 C 343.267 190.8 343.065 190.639 343.01 190.413 C 342.948 190.145 343.113 189.877 343.38 189.813 C 345.137 189.397 346.922 189.113 348.72 188.963 C 349.3 188.963 349.89 188.873 350.47 188.843 C 350.604 188.829 350.738 188.871 350.839 188.961 C 350.94 189.05 350.998 189.178 351 189.313 C 351.012 189.585 350.803 189.816 350.53 189.833 C 349.95 189.833 349.38 189.913 348.81 189.963 C 347.063 190.107 345.328 190.382 343.62 190.783 L 343.5 190.803 Z  M 252.97 184.803 C 252.859 184.805 252.75 184.77 252.66 184.703 C 250.76 183.213 248.94 181.653 247.25 180.083 C 247.156 179.989 247.103 179.861 247.103 179.728 C 247.103 179.594 247.156 179.467 247.25 179.373 C 247.448 179.181 247.763 179.181 247.96 179.373 C 249.63 180.933 251.43 182.473 253.31 183.943 C 253.525 184.114 253.561 184.427 253.39 184.643 C 253.282 184.748 253.13 184.796 252.98 184.773 L 252.97 184.803 Z  M 242.65 175.153 C 242.506 175.151 242.368 175.09 242.27 174.983 C 240.699 173.196 239.233 171.32 237.88 169.363 C 237.725 169.135 237.778 168.825 238 168.663 C 238.232 168.514 238.538 168.571 238.7 168.793 C 240.05 170.711 241.513 172.548 243.08 174.293 C 243.271 174.487 243.271 174.798 243.08 174.993 C 242.968 175.098 242.813 175.146 242.66 175.123 L 242.65 175.153 Z  M 234.65 163.523 C 234.462 163.522 234.291 163.413 234.21 163.243 C 233.114 161.129 232.168 158.94 231.38 156.693 C 231.293 156.431 231.431 156.147 231.69 156.053 C 231.95 155.966 232.231 156.104 232.32 156.363 C 233.094 158.569 234.023 160.718 235.1 162.793 C 235.224 163.038 235.126 163.338 234.88 163.463 C 234.808 163.492 234.728 163.502 234.65 163.493 L 234.65 163.523 Z  M 230.08 150.163 C 229.835 150.165 229.625 149.986 229.59 149.743 C 229.49 149.213 229.41 148.683 229.33 148.143 C 229.086 146.38 228.962 144.602 228.96 142.823 L 228.96 142.613 C 228.96 142.336 229.184 142.113 229.46 142.113 C 229.737 142.113 229.96 142.336 229.96 142.613 L 229.96 142.813 C 229.959 144.546 230.079 146.277 230.32 147.993 C 230.4 148.523 230.48 149.043 230.57 149.563 C 230.619 149.833 230.44 150.092 230.17 150.143 L 230.08 150.163 Z  M 230.13 136.083 L 230.04 136.083 C 229.77 136.032 229.592 135.773 229.64 135.503 C 230.075 133.154 230.707 130.845 231.53 128.603 C 231.633 128.346 231.918 128.214 232.18 128.303 C 232.436 128.401 232.565 128.686 232.47 128.943 C 231.662 131.132 231.043 133.387 230.62 135.683 C 230.575 135.938 230.338 136.113 230.08 136.083 L 230.13 136.083 Z  M 235.01 122.873 C 234.923 122.868 234.838 122.844 234.76 122.803 C 234.523 122.66 234.443 122.353 234.58 122.113 C 235.783 120.047 237.172 118.095 238.73 116.283 C 238.918 116.114 239.202 116.111 239.393 116.276 C 239.584 116.441 239.621 116.723 239.48 116.933 C 237.982 118.708 236.644 120.612 235.48 122.623 C 235.38 122.8 235.182 122.899 234.98 122.873 L 235.01 122.873 Z  M 244.22 112.223 C 244.009 112.221 243.821 112.087 243.751 111.887 C 243.682 111.687 243.745 111.465 243.91 111.333 C 245.8 109.866 247.826 108.583 249.96 107.503 C 250.209 107.378 250.511 107.479 250.635 107.728 C 250.76 107.976 250.659 108.278 250.41 108.403 C 248.334 109.455 246.362 110.7 244.52 112.123 C 244.426 112.195 244.309 112.23 244.19 112.223 L 244.22 112.223 Z  M 305.64 105.993 L 305.64 105.993 C 303.259 105.94 300.884 105.73 298.53 105.363 C 298.254 105.324 298.062 105.069 298.1 104.793 C 298.139 104.516 298.394 104.324 298.67 104.363 C 300.987 104.727 303.326 104.934 305.67 104.983 C 305.947 104.983 306.17 105.206 306.17 105.483 C 306.17 105.759 305.947 105.983 305.67 105.983 L 305.64 105.993 Z  M 256.7 105.733 C 256.424 105.777 256.165 105.589 256.12 105.313 C 256.076 105.036 256.264 104.777 256.54 104.733 C 258.803 103.998 261.107 103.397 263.44 102.933 C 263.572 102.906 263.708 102.934 263.819 103.009 C 263.93 103.084 264.006 103.201 264.03 103.333 C 264.06 103.462 264.035 103.597 263.961 103.707 C 263.887 103.817 263.771 103.891 263.64 103.913 C 261.345 104.372 259.078 104.963 256.85 105.683 L 256.7 105.733 Z  M 291.62 104.163 L 291.53 104.163 C 289.38 103.763 286.95 103.313 284.53 102.973 C 284.261 102.931 284.075 102.683 284.11 102.413 C 284.125 102.28 284.193 102.16 284.299 102.079 C 284.405 101.997 284.539 101.963 284.67 101.983 C 287.07 102.323 289.51 102.783 291.67 103.183 C 291.94 103.233 292.119 103.492 292.07 103.763 C 292.035 103.991 291.851 104.168 291.62 104.193 L 291.62 104.163 Z  M 270.54 102.873 C 270.264 102.889 270.027 102.679 270.01 102.403 C 269.994 102.126 270.204 101.889 270.48 101.873 C 271.75 101.733 273.11 101.603 274.48 101.493 C 275.36 101.423 276.29 101.383 277.24 101.383 L 277.57 101.383 C 277.703 101.385 277.829 101.44 277.921 101.536 C 278.013 101.632 278.063 101.76 278.06 101.893 C 278.045 102.16 277.829 102.373 277.56 102.383 L 277.24 102.383 C 276.32 102.383 275.42 102.383 274.55 102.483 C 273.17 102.593 271.83 102.723 270.55 102.873 L 270.54 102.873 Z " fill="rgb(255,255,255)"/></g><g opacity="0.6000000000000001"><path d=" M 267.9 278.093 L 267.9 278.093 C 266.71 278.043 265.53 277.953 264.39 277.843 C 264.258 277.833 264.136 277.769 264.051 277.668 C 263.967 277.566 263.927 277.434 263.94 277.303 C 263.948 277.169 264.01 277.045 264.112 276.96 C 264.215 276.875 264.348 276.836 264.48 276.853 C 265.61 276.963 266.77 277.043 267.95 277.093 C 268.227 277.093 268.45 277.316 268.45 277.593 C 268.45 277.869 268.227 278.093 267.95 278.093 L 267.9 278.093 Z " fill="rgb(255,255,255)"/></g></g></g><g><path d="M 325.608 66.773 L 360.922 68.222 C 362.698 68.295 364.08 69.796 364.007 71.572 L 363.351 87.561 C 363.278 89.337 361.777 90.72 360.002 90.647 L 324.688 89.198 C 322.912 89.125 321.53 87.624 321.603 85.848 L 322.259 69.859 C 322.332 68.083 323.833 66.7 325.608 66.773 Z" style="stroke:none;fill:#407BFF;stroke-miterlimit:10;"/><g style="mix-blend-mode:normal;" opacity="0.8"><path d="M 325.608 66.773 L 360.922 68.222 C 362.698 68.295 364.08 69.796 364.007 71.572 L 363.351 87.561 C 363.278 89.337 361.777 90.72 360.002 90.647 L 324.688 89.198 C 322.912 89.125 321.53 87.624 321.603 85.848 L 322.259 69.859 C 322.332 68.083 323.833 66.7 325.608 66.773 Z" style="stroke:none;fill:#FFFFFF;stroke-miterlimit:10;"/></g><g opacity="0.4"><path d=" M 342.65 82.993 C 342.547 82.992 342.446 82.961 342.36 82.903 L 324.08 70.323 C 323.97 70.248 323.893 70.131 323.869 70 C 323.845 69.868 323.874 69.732 323.95 69.623 C 324.109 69.403 324.412 69.346 324.64 69.493 L 342.64 81.913 L 361.64 71.013 C 361.881 70.878 362.185 70.963 362.32 71.203 C 362.457 71.44 362.377 71.744 362.14 71.883 L 342.92 82.883 C 342.844 82.947 342.75 82.986 342.65 82.993 Z " fill="rgb(64,123,255)"/></g><g opacity="0.4"><path d=" M 361.21 87.883 C 361.11 87.883 361.012 87.852 360.93 87.793 L 350.47 80.523 C 350.36 80.448 350.283 80.331 350.259 80.2 C 350.235 80.068 350.264 79.932 350.34 79.823 C 350.503 79.6 350.813 79.547 351.04 79.703 L 361.5 86.993 C 361.609 87.067 361.683 87.183 361.706 87.312 C 361.728 87.442 361.697 87.576 361.62 87.683 C 361.524 87.811 361.371 87.886 361.21 87.883 L 361.21 87.883 Z " fill="rgb(64,123,255)"/></g><g opacity="0.4"><path d=" M 323.75 86.343 C 323.517 86.354 323.307 86.202 323.245 85.976 C 323.183 85.751 323.285 85.513 323.49 85.403 L 334.49 79.023 C 334.724 78.917 335 79.005 335.129 79.227 C 335.257 79.449 335.198 79.732 334.99 79.883 L 323.99 86.273 C 323.918 86.317 323.835 86.341 323.75 86.343 L 323.75 86.343 Z " fill="rgb(64,123,255)"/></g></g><g><path d=" M 396.3 76.793 L 325.93 92.843 L 316.91 98.413 L 396.3 76.793 L 396.3 76.793 Z " fill="rgb(64,123,255)"/><g opacity="0.2"><path d=" M 325.93 92.843 L 316.91 98.413 L 396.3 76.793" fill="rgb(0,0,0)"/></g><path d=" M 396.3 76.793 L 325.93 92.843 L 332.55 97.713 L 396.3 76.793 L 396.3 76.793 Z " fill="rgb(64,123,255)"/><path d=" M 396.3 76.793 L 335.97 89.133 L 332.55 97.713 L 396.3 76.793 L 396.3 76.793 Z " fill="rgb(64,123,255)"/><g opacity="0.2"><path d=" M 396.3 76.793 L 335.97 89.133 L 332.55 97.713 L 396.3 76.793 L 396.3 76.793 Z " fill="rgb(0,0,0)"/></g><path d=" M 396.3 76.793 L 335.97 89.133 L 354.97 96.023 L 396.3 76.793 L 396.3 76.793 Z " fill="rgb(64,123,255)"/></g></g></svg>