<?xml version="1.0" encoding="UTF-8" standalone="no"?><!-- Generator: Gravit.io --><svg xmlns="http://www.w3.org/2000/svg" xmlns:xlink="http://www.w3.org/1999/xlink" style="isolation:isolate" viewBox="113.956 77.411 272.088 345.178" width="272.088pt" height="345.178pt"><g><g><g><path d=" M 248.536 160.187 C 265.376 173.721 259.504 238.318 262.666 248.256 C 265.828 258.194 279.38 266.326 279.38 266.326 L 260.479 288.46 C 260.479 288.46 244.669 285.714 232.653 259.965 C 220.637 234.216 248.536 160.187 248.536 160.187 Z " fill="rgb(38,50,56)"/><g opacity="0.2"><path d=" M 248.536 160.187 C 265.376 173.721 259.504 238.318 262.666 248.256 C 265.828 258.194 279.38 266.326 279.38 266.326 L 260.479 288.46 C 260.479 288.46 244.669 285.714 232.653 259.965 C 220.637 234.216 248.536 160.187 248.536 160.187 Z " fill="rgb(0,0,0)"/></g><path d=" M 230.593 302.012 C 230.593 302.012 351.657 268.241 366.799 310.722 C 381.941 353.203 272.152 387.047 211.385 389.197 C 150.618 391.347 125.791 348.559 143.716 308.03 L 230.593 302.012 Z " fill="rgb(64,123,255)"/><g opacity="0.2"><path d=" M 230.593 302.012 C 230.593 302.012 351.657 268.241 366.799 310.722 C 381.941 353.203 272.152 387.047 211.385 389.197 C 150.618 391.347 125.791 348.559 143.716 308.03 L 230.593 302.012 Z " fill="rgb(0,0,0)"/></g><path d=" M 349.254 370.766 C 349.116 370.855 348.94 370.855 348.802 370.766 C 348.679 370.683 348.633 370.523 348.694 370.387 C 348.893 369.718 350.916 363.864 352.94 363.249 C 353.384 363.153 353.847 363.289 354.169 363.611 C 354.741 364.092 355.01 364.845 354.873 365.58 C 354.546 366.672 353.882 367.634 352.976 368.327 C 351.816 369.256 350.569 370.073 349.254 370.766 L 349.254 370.766 Z  M 349.778 369.628 C 351.672 368.801 353.205 367.319 354.096 365.454 C 354.205 364.947 354.007 364.424 353.591 364.117 C 353.481 363.972 353.288 363.92 353.121 363.99 C 352.944 364.04 352.782 364.133 352.651 364.261 C 351.396 365.863 350.446 367.682 349.85 369.628 L 349.778 369.628 Z " fill="rgb(64,123,255)"/><path d=" M 349.145 370.838 C 349.009 370.881 348.86 370.838 348.766 370.73 C 348.567 370.567 345.767 367.008 346.236 364.623 C 346.346 364.026 346.691 363.498 347.194 363.159 C 347.635 362.734 348.312 362.674 348.82 363.014 C 350.284 364.044 350.103 368.778 349.38 370.585 L 349.38 370.766 L 349.145 370.838 Z  M 347.537 363.882 C 347.29 364.104 347.124 364.403 347.068 364.731 C 346.76 366.249 348.17 368.525 348.874 369.61 C 349.326 367.586 349.182 364.189 348.314 363.665 C 348.224 363.665 348.043 363.466 347.61 363.773 L 347.465 363.882 L 347.537 363.882 Z " fill="rgb(64,123,255)"/><path d=" M 225.895 392.25 C 225.938 392.096 226.063 391.978 226.22 391.943 C 226.366 391.924 226.507 392.006 226.563 392.142 C 226.925 392.756 229.689 398.286 228.696 400.165 C 228.469 400.557 228.046 400.793 227.593 400.779 C 226.853 400.867 226.124 400.541 225.696 399.93 C 225.143 398.928 224.922 397.777 225.064 396.641 C 225.197 395.154 225.476 393.684 225.895 392.25 L 225.895 392.25 Z  M 226.329 393.407 C 225.615 395.349 225.615 397.482 226.329 399.424 C 226.618 399.857 227.133 400.083 227.648 400.002 C 227.83 400.013 228.001 399.914 228.081 399.749 C 228.149 399.582 228.192 399.405 228.208 399.225 C 227.936 397.189 227.299 395.218 226.329 393.407 L 226.329 393.407 Z " fill="rgb(64,123,255)"/><path d=" M 255.221 351.378 L 233.809 367.08 L 223.528 374.615 L 230.231 386.342 L 240.676 380.632 L 266.171 366.682 L 255.221 351.378 L 255.221 351.378 Z " fill="rgb(235,179,118)"/><path d=" M 233.556 385.98 L 227.087 371.724 C 226.915 371.345 226.597 371.053 226.205 370.913 C 225.814 370.774 225.382 370.799 225.009 370.983 L 218.035 374.398 C 218.035 374.398 208.332 378.319 207.193 381.463 C 203.579 390.678 217.113 422.571 221.323 422.589 C 222.859 422.589 223.781 420.204 223.998 418.686 C 224.666 413.843 224.793 401.701 225.407 397.671 C 226.13 392.973 230.828 389.359 233.086 387.914 C 233.689 387.467 233.887 386.654 233.556 385.98 Z " fill="rgb(38,50,56)"/><path d=" M 225.913 392.124 C 225.981 391.998 226.114 391.922 226.256 391.925 C 226.509 391.925 231.008 392.377 232.4 394.383 C 232.741 394.885 232.871 395.502 232.761 396.099 C 232.758 396.71 232.329 397.237 231.731 397.364 C 229.924 397.689 226.708 394.256 225.931 392.485 L 225.931 392.323 C 225.907 392.259 225.901 392.191 225.913 392.124 Z  M 232.002 395.846 C 232.024 395.511 231.928 395.179 231.731 394.907 C 230.864 393.642 228.244 393.1 226.943 392.829 C 228.063 394.636 230.557 396.804 231.569 396.605 C 231.677 396.605 231.894 396.605 231.984 396.027 L 231.984 395.846 L 232.002 395.846 Z " fill="rgb(64,123,255)"/><g opacity="0.2"><path d=" M 255.221 351.378 L 233.809 367.08 L 240.676 380.632 L 266.171 366.682 L 255.221 351.378 L 255.221 351.378 Z " fill="rgb(0,0,0)"/></g><path d=" M 245.554 381.517 L 252.601 379.945 L 240.91 357.612 L 234.369 364.279 L 245.554 381.517 L 245.554 381.517 Z " fill="rgb(64,123,255)"/><g opacity="0.6000000000000001"><path d=" M 245.554 381.517 L 252.601 379.945 L 240.91 357.612 L 234.369 364.279 L 245.554 381.517 L 245.554 381.517 Z " fill="rgb(255,255,255)"/></g><path d=" M 299.527 378.409 L 325.728 382.728 L 338.322 384.806 L 341.99 371.796 L 330.606 368.345 L 302.816 359.888 L 299.527 378.409 L 299.527 378.409 Z " fill="rgb(235,179,118)"/><path d=" M 339.424 369.682 L 333.75 384.264 C 333.604 384.654 333.619 385.087 333.792 385.467 C 333.965 385.846 334.281 386.142 334.672 386.288 L 341.99 388.872 C 341.99 388.872 351.585 393.064 354.639 391.726 C 363.673 387.823 377.081 355.877 374.135 352.859 C 373.051 351.757 370.72 352.769 369.473 353.691 C 365.552 356.582 356.825 365.002 353.482 367.369 C 349.615 370.152 343.707 369.284 341.141 368.724 C 340.411 368.58 339.684 368.985 339.424 369.682 Z " fill="rgb(38,50,56)"/><g opacity="0.2"><path d=" M 299.527 378.409 L 325.728 382.728 L 330.606 368.345 L 302.816 359.888 L 299.527 378.409 L 299.527 378.409 Z " fill="rgb(0,0,0)"/></g><path d=" M 326.089 365.707 C 326.089 365.707 217.167 301.452 180.306 303.169 C 143.445 304.885 140.246 341.494 155.443 361.822 C 170.639 382.15 198.809 387.119 198.809 387.119 C 198.809 387.119 179.692 360.015 182.456 352.498 C 185.221 344.981 195.755 370.459 195.755 370.459 C 195.755 370.459 263.244 379.295 322.042 384.282 L 326.089 365.707 Z " fill="rgb(64,123,255)"/><path d=" M 327.824 363.972 L 321.771 359.906 L 314.001 383.776 L 323.324 383.776 L 327.824 363.972 L 327.824 363.972 Z " fill="rgb(64,123,255)"/><g opacity="0.6000000000000001"><path d=" M 327.824 363.972 L 321.771 359.906 L 314.001 383.776 L 323.324 383.776 L 327.824 363.972 L 327.824 363.972 Z " fill="rgb(255,255,255)"/></g><path d=" M 244.85 313.306 C 225.136 275.36 231.406 217.629 248.463 160.187 C 236.538 150.23 188.961 143.509 152.696 154.061 C 152.696 154.061 129.676 239.366 132.386 332.55 L 244.85 313.306 Z " fill="rgb(38,50,56)"/><path d=" M 203.001 169.51 C 187.154 169.51 176.837 152.887 176.837 152.887 C 197.616 145.659 197.689 123.669 197.689 123.669 L 205.693 131.493 L 217.095 142.659 C 207.609 149.381 212.09 155.199 215.107 157.783 C 215.725 158.336 216.39 158.831 217.095 159.265 C 217.095 159.265 218.848 169.51 203.001 169.51 Z " fill="rgb(235,179,118)"/><g opacity="0.2"><path d=" M 215.107 157.783 C 195.665 159.97 197.038 130.86 197.038 130.86 C 199.954 130.814 202.869 131.026 205.748 131.493 L 217.149 142.659 C 207.609 149.381 212.09 155.199 215.107 157.783 Z " fill="rgb(0,0,0)"/></g><path d=" M 230.286 101.895 C 222.931 104.931 224.341 112.972 236.556 127.626 C 244.073 121.139 248.156 106.394 244.199 101.66 C 240.242 96.926 236.718 99.203 230.286 101.895 Z " fill="rgb(38,50,56)"/><path d=" M 241.163 134.42 L 241.163 134.42 C 240.497 136.381 239.713 138.3 238.814 140.166 C 231.587 154.965 210.662 157.838 201.411 143.201 L 201.303 143.057 C 195.195 133.209 197.49 124.012 200.038 108.075 C 201.192 100.565 206.131 94.179 213.109 91.175 C 220.088 88.17 228.121 88.971 234.369 93.294 C 246.548 101.769 245.825 120.814 241.163 134.42 Z " fill="rgb(235,179,118)"/><path d=" M 222.534 117.706 C 222.245 118.989 222.697 120.181 223.528 120.362 C 224.359 120.543 225.335 119.675 225.552 118.392 C 225.768 117.109 225.389 115.935 224.576 115.736 C 223.763 115.537 222.895 116.459 222.534 117.706 Z " fill="rgb(38,50,56)"/><path d=" M 237.062 120.994 C 236.773 122.259 237.224 123.452 238.074 123.632 C 238.923 123.813 239.88 122.964 240.115 121.663 C 240.35 120.362 239.935 119.187 239.104 119.007 C 238.272 118.826 237.351 119.711 237.062 120.994 Z " fill="rgb(38,50,56)"/><path d=" M 232.183 120.525 C 232.815 124.779 234.031 128.926 235.797 132.848 C 233.014 134.438 229.418 132.613 229.418 132.613 L 232.183 120.525 Z " fill="rgb(213,135,69)"/><path d=" M 219.589 112.231 C 219.416 112.22 219.254 112.142 219.137 112.014 C 218.991 111.871 218.909 111.676 218.909 111.472 C 218.909 111.268 218.991 111.072 219.137 110.93 C 220.975 109.248 223.519 108.573 225.949 109.123 C 226.342 109.229 226.576 109.632 226.473 110.026 L 226.473 110.026 C 226.336 110.421 225.922 110.648 225.515 110.55 L 225.515 110.55 C 223.584 110.11 221.559 110.644 220.095 111.978 C 219.963 112.121 219.783 112.211 219.589 112.231 Z " fill="rgb(38,50,56)"/><path d=" M 244.777 117.579 C 244.49 117.501 244.268 117.273 244.199 116.983 C 243.802 115.066 242.513 113.454 240.73 112.646 C 240.332 112.494 240.125 112.056 240.26 111.652 C 240.405 111.258 240.837 111.05 241.236 111.183 C 243.507 112.164 245.164 114.184 245.681 116.603 C 245.73 116.8 245.698 117.008 245.593 117.181 C 245.488 117.354 245.318 117.478 245.121 117.525 L 244.777 117.525 L 244.777 117.579 Z " fill="rgb(38,50,56)"/><path d=" M 209.416 95.607 C 216.192 99.781 213.517 107.497 199.134 120.001 C 192.72 112.411 191.039 97.179 195.719 93.168 C 200.399 89.156 203.489 91.975 209.416 95.607 Z " fill="rgb(38,50,56)"/><path d=" M 189.72 119.025 C 189.954 123.082 191.794 126.879 194.834 129.577 C 198.881 133.191 203.2 130.047 204.013 125.024 C 204.754 120.488 203.507 113.188 198.592 111.598 C 193.677 110.008 189.449 114.056 189.72 119.025 Z " fill="rgb(235,179,118)"/><path d=" M 217.095 132.775 C 217.095 132.775 218.757 138.522 226.455 139.859" fill="none" vector-effect="non-scaling-stroke" stroke-width="0.557" stroke="rgb(38,50,56)" stroke-linejoin="round" stroke-linecap="round" stroke-miterlimit="4"/><path d=" M 230.936 120.633 C 230.936 123.627 228.509 126.054 225.515 126.054 C 222.522 126.054 220.095 123.627 220.095 120.633 C 220.095 117.639 222.522 115.212 225.515 115.212 C 228.509 115.212 230.936 117.639 230.936 120.633 Z " fill="none" vector-effect="non-scaling-stroke" stroke-width="0.557" stroke="rgb(38,50,56)" stroke-linejoin="round" stroke-linecap="round" stroke-miterlimit="4"/><path d=" M 245.699 123.669 C 245.699 126.662 243.272 129.089 240.278 129.089 C 237.284 129.089 234.857 126.662 234.857 123.669 C 234.857 120.675 237.284 118.248 240.278 118.248 C 243.272 118.248 245.699 120.675 245.699 123.669 Z " fill="none" vector-effect="non-scaling-stroke" stroke-width="0.557" stroke="rgb(38,50,56)" stroke-linejoin="round" stroke-linecap="round" stroke-miterlimit="4"/><path d=" M 230.936 122.115 C 232.276 121.398 233.941 121.84 234.749 123.126" fill="none" vector-effect="non-scaling-stroke" stroke-width="0.557" stroke="rgb(38,50,56)" stroke-linejoin="round" stroke-linecap="round" stroke-miterlimit="4"/><path d=" M 220.095 119.513 C 220.095 119.513 204.392 112.899 201.465 112.285" fill="none" vector-effect="non-scaling-stroke" stroke-width="0.557" stroke="rgb(38,50,56)" stroke-linejoin="round" stroke-linecap="round" stroke-miterlimit="4"/><path d=" M 195.557 93.384 C 195.557 93.384 193.93 80.628 206.958 78.513 C 206.958 78.513 237.026 79.67 242.302 77.411 C 241.884 79.697 240.528 81.703 238.561 82.94 C 238.561 82.94 248.5 86.554 256.324 83.446 C 256.324 83.446 252.927 92.86 248.536 96.474 L 252.276 96.474 C 252.276 96.474 244.868 103.557 235.851 103.702 C 235.851 103.702 218.342 91.433 209.416 95.607 C 200.489 99.781 195.557 93.384 195.557 93.384 Z " fill="rgb(38,50,56)"/><g opacity="0.4"><path d=" M 241.163 134.42 L 241.163 134.42 C 240.497 136.381 239.713 138.3 238.814 140.166 C 231.587 154.965 210.662 157.838 201.411 143.201 L 201.303 143.057 C 196.532 134.582 200.345 125.331 200.345 125.331 L 203.128 116.296 L 205.151 114.291 C 205.151 114.291 205.621 123.452 207.049 126.036 C 207.049 126.036 216.607 129.378 218.27 129.83 C 218.27 129.83 223.871 134.98 225.823 136.245 C 225.823 136.245 234.857 136.462 235.779 137.51 C 236.7 138.558 241.163 134.42 241.163 134.42 Z " fill="rgb(0,0,0)"/></g><g opacity="0.2"><path d=" M 159.924 279.878 L 197.4 321.437 C 197.4 321.437 238.814 320.515 289.119 345.108 C 289.119 345.108 343.092 322.81 348.061 304.289 C 353.03 285.768 234.749 298.868 234.749 298.868 L 159.924 279.878 Z " fill="rgb(0,0,0)"/></g><path d=" M 170.512 267.681 L 230.593 287.34 C 230.593 287.34 252.059 282.588 255.89 282.588 C 259.721 282.588 274.555 294.64 266.171 298.85 C 257.787 303.06 234.893 303.603 232.4 302.247 C 229.906 300.892 163.285 285.298 163.285 285.298 L 170.512 267.681 Z " fill="rgb(235,179,118)"/><path d=" M 152.696 154.061 C 166.284 151.423 142.704 234.253 148.486 246.449 C 154.268 258.646 176.837 266.326 176.837 266.326 L 166.447 289.256 C 166.447 289.256 135.729 283.455 119.015 262.152 C 102.301 240.848 130.507 158.362 152.696 154.061 Z " fill="rgb(38,50,56)"/><g opacity="0.2"><path d=" M 152.696 154.061 C 166.284 151.423 142.704 234.253 148.486 246.449 C 154.268 258.646 176.837 266.326 176.837 266.326 L 166.447 289.256 C 166.447 289.256 135.729 283.455 119.015 262.152 C 102.301 240.848 130.507 158.362 152.696 154.061 Z " fill="rgb(0,0,0)"/></g><path d=" M 176.837 264.519 L 164.188 289.292 L 175.03 291.623 L 184.968 268.819 L 176.837 264.519 L 176.837 264.519 Z " fill="rgb(38,50,56)"/><g opacity="0.2"><path d=" M 176.837 264.519 L 164.188 289.292 L 175.03 291.623 L 184.968 268.819 L 176.837 264.519 L 176.837 264.519 Z " fill="rgb(255,255,255)"/></g><path d=" M 201.682 298.85 L 201.682 302.789 C 201.689 305.517 203.836 307.76 206.561 307.885 L 351.82 307.885 C 354.628 307.806 356.91 305.594 357.078 302.789 L 357.078 298.85 L 201.682 298.85 Z " fill="rgb(38,50,56)"/><g opacity="0.2"><path d=" M 201.682 298.85 L 201.682 302.789 C 201.689 305.517 203.836 307.76 206.561 307.885 L 351.82 307.885 C 354.628 307.806 356.91 305.594 357.078 302.789 L 357.078 298.85 L 201.682 298.85 Z " fill="rgb(255,255,255)"/></g><g opacity="0.2"><path d=" M 255.89 298.85 L 255.89 302.789 C 255.906 305.52 258.059 307.76 260.787 307.885 L 351.82 307.885 C 354.628 307.806 356.91 305.594 357.078 302.789 L 357.078 298.85 L 255.89 298.85 Z " fill="rgb(255,255,255)"/></g><path d=" M 260.787 304.271 L 356.753 304.271 C 359.903 304.117 362.653 302.087 363.727 299.121 L 385.736 230.079 C 386.248 228.883 386.115 227.508 385.384 226.433 C 384.652 225.357 383.422 224.729 382.122 224.766 L 286.084 224.766 C 282.911 224.998 280.175 227.082 279.109 230.079 L 257.101 299.031 C 256.583 300.231 256.725 301.614 257.477 302.682 C 258.229 303.751 259.482 304.353 260.787 304.271 Z " fill="rgb(38,50,56)"/><g opacity="0.2"><path d=" M 260.787 304.271 L 356.753 304.271 C 359.903 304.117 362.653 302.087 363.727 299.121 L 385.736 230.079 C 386.248 228.883 386.115 227.508 385.384 226.433 C 384.652 225.357 383.422 224.729 382.122 224.766 L 286.084 224.766 C 282.911 224.998 280.175 227.082 279.109 230.079 L 257.101 299.031 C 256.583 300.231 256.725 301.614 257.477 302.682 C 258.229 303.751 259.482 304.353 260.787 304.271 Z " fill="rgb(255,255,255)"/></g><g opacity="0.2"><path d=" M 264.401 304.271 L 356.753 304.271 C 359.903 304.117 362.653 302.087 363.727 299.121 L 385.736 230.079 C 386.248 228.883 386.115 227.508 385.384 226.433 C 384.652 225.357 383.422 224.729 382.122 224.766 L 289.698 224.766 C 286.525 224.998 283.789 227.082 282.723 230.079 L 260.714 299.031 C 260.197 300.231 260.339 301.614 261.091 302.682 C 261.843 303.751 263.096 304.353 264.401 304.271 Z " fill="rgb(255,255,255)"/></g><g opacity="0.2"><path d=" M 330.552 256.948 L 317.271 266.362 L 323.017 275.758 L 336.298 266.362 L 330.552 256.948 L 330.552 256.948 Z " fill="rgb(255,255,255)"/></g></g></g></g></svg>